<svg width="169" height="67" viewBox="0 0 169 67" fill="none" xmlns="http://www.w3.org/2000/svg">
<path d="M34.1727 32.34C36.8047 33.908 38.8487 35.868 40.3047 38.22C41.8167 40.516 42.5727 42.924 42.5727 45.444C42.5727 48.636 41.6767 51.576 39.8847 54.264C38.1487 56.952 35.7687 59.08 32.7447 60.648C29.7767 62.216 26.5007 63 22.9167 63C19.3327 63 16.0287 62.216 13.0047 60.648C10.0367 59.08 7.6567 56.952 5.8647 54.264C4.1287 51.576 3.2607 48.636 3.2607 45.444C3.2607 40.068 5.9767 35.7 11.4087 32.34C9.4487 31.22 7.8247 29.708 6.5367 27.804C5.3047 25.9 4.6887 23.66 4.6887 21.084C4.6887 18.004 5.5007 15.176 7.1247 12.6C8.7487 10.024 10.9327 7.98 13.6767 6.468C16.4767 4.956 19.5567 4.2 22.9167 4.2C26.2767 4.2 29.3287 4.956 32.0727 6.468C34.8727 7.98 37.0567 10.024 38.6247 12.6C40.2487 15.176 41.0607 18.004 41.0607 21.084C41.0607 23.884 40.3887 26.208 39.0447 28.056C37.7567 29.848 36.1327 31.276 34.1727 32.34ZM22.9167 13.44C20.5647 13.44 18.6047 14.196 17.0367 15.708C15.5247 17.164 14.7687 19.012 14.7687 21.252C14.7687 23.548 15.5247 25.452 17.0367 26.964C18.6047 28.42 20.5647 29.148 22.9167 29.148C25.2127 29.148 27.1167 28.392 28.6287 26.88C30.1967 25.368 30.9807 23.492 30.9807 21.252C30.9807 19.012 30.1967 17.164 28.6287 15.708C27.1167 14.196 25.2127 13.44 22.9167 13.44ZM22.9167 53.76C25.6047 53.76 27.8727 52.948 29.7207 51.324C31.5687 49.644 32.4927 47.628 32.4927 45.276C32.4927 42.868 31.5687 40.852 29.7207 39.228C27.8727 37.548 25.6047 36.708 22.9167 36.708C20.2287 36.708 17.9607 37.548 16.1127 39.228C14.2647 40.852 13.3407 42.868 13.3407 45.276C13.3407 47.628 14.2647 49.644 16.1127 51.324C17.9607 52.948 20.2287 53.76 22.9167 53.76ZM73.3915 63.84C68.6875 63.84 64.6275 62.58 61.2115 60.06C57.8515 57.54 55.3035 54.012 53.5675 49.476C51.8315 44.884 50.9635 39.592 50.9635 33.6C50.9635 27.608 51.8315 22.344 53.5675 17.808C55.3035 13.216 57.8515 9.66 61.2115 7.14C64.6275 4.62 68.6875 3.36 73.3915 3.36C78.0955 3.36 82.1275 4.62 85.4875 7.14C88.9035 9.66 91.4795 13.216 93.2155 17.808C94.9515 22.344 95.8195 27.608 95.8195 33.6C95.8195 39.592 94.9515 44.884 93.2155 49.476C91.4795 54.012 88.9035 57.54 85.4875 60.06C82.1275 62.58 78.0955 63.84 73.3915 63.84ZM73.3915 53.76C76.9755 53.76 79.7755 52.052 81.7915 48.636C83.8635 45.22 84.8995 40.208 84.8995 33.6C84.8995 26.992 83.8635 21.98 81.7915 18.564C79.7755 15.148 76.9755 13.44 73.3915 13.44C69.8075 13.44 66.9795 15.148 64.9075 18.564C62.8915 21.98 61.8835 26.992 61.8835 33.6C61.8835 40.208 62.8915 45.22 64.9075 48.636C66.9795 52.052 69.8075 53.76 73.3915 53.76ZM115.497 36.12C112.865 36.12 110.485 35.42 108.357 34.02C106.285 32.564 104.661 30.604 103.485 28.14C102.309 25.62 101.721 22.848 101.721 19.824C101.721 16.744 102.309 13.972 103.485 11.508C104.661 8.988 106.285 7.028 108.357 5.628C110.429 4.172 112.809 3.444 115.497 3.444C118.185 3.444 120.565 4.172 122.637 5.628C124.709 7.028 126.305 8.988 127.425 11.508C128.601 13.972 129.189 16.744 129.189 19.824C129.189 22.848 128.573 25.62 127.341 28.14C126.165 30.604 124.513 32.564 122.385 34.02C120.313 35.42 118.017 36.12 115.497 36.12ZM116.505 63.168C115.497 63.168 114.517 62.776 113.565 61.992C112.613 61.208 112.137 60.228 112.137 59.052C112.137 58.324 112.417 57.484 112.977 56.532L146.409 6.048C147.417 4.704 148.565 4.032 149.853 4.032C150.861 4.032 151.841 4.424 152.793 5.208C153.745 5.992 154.221 6.972 154.221 8.148C154.221 8.876 153.941 9.716 153.381 10.668L119.949 61.152C118.941 62.496 117.793 63.168 116.505 63.168ZM115.497 28.644C117.121 28.644 118.409 27.832 119.361 26.208C120.313 24.528 120.789 22.4 120.789 19.824C120.789 17.192 120.313 15.064 119.361 13.44C118.465 11.816 117.177 11.004 115.497 11.004C113.873 11.004 112.557 11.844 111.549 13.524C110.597 15.148 110.121 17.248 110.121 19.824C110.121 22.4 110.597 24.528 111.549 26.208C112.501 27.832 113.817 28.644 115.497 28.644ZM151.533 63.84C149.013 63.84 146.689 63.14 144.561 61.74C142.489 60.284 140.837 58.324 139.605 55.86C138.373 53.34 137.757 50.568 137.757 47.544C137.757 44.464 138.345 41.692 139.521 39.228C140.697 36.708 142.321 34.748 144.393 33.348C146.465 31.892 148.845 31.164 151.533 31.164C154.221 31.164 156.601 31.892 158.673 33.348C160.745 34.748 162.341 36.708 163.461 39.228C164.637 41.692 165.225 44.464 165.225 47.544C165.225 50.568 164.609 53.34 163.377 55.86C162.201 58.324 160.549 60.284 158.421 61.74C156.349 63.14 154.053 63.84 151.533 63.84ZM151.533 56.364C153.157 56.364 154.445 55.552 155.397 53.928C156.349 52.248 156.825 50.12 156.825 47.544C156.825 44.912 156.349 42.784 155.397 41.16C154.501 39.536 153.213 38.724 151.533 38.724C149.909 38.724 148.593 39.564 147.585 41.244C146.633 42.868 146.157 44.968 146.157 47.544C146.157 50.12 146.633 52.248 147.585 53.928C148.537 55.552 149.853 56.364 151.533 56.364Z" fill="#FFE8A4"/>
<path d="M34.1727 32.34L32.7414 29.7034L28.1078 32.2189L32.6373 34.9173L34.1727 32.34ZM40.3047 38.22L37.7539 39.7991L37.7761 39.8348L37.7992 39.87L40.3047 38.22ZM39.8847 54.264L37.3886 52.5999L37.3764 52.6181L37.3646 52.6364L39.8847 54.264ZM32.7447 60.648L31.3638 57.9847L31.3535 57.99L31.3433 57.9954L32.7447 60.648ZM13.0047 60.648L11.6033 63.3006L11.6135 63.306L11.6238 63.3113L13.0047 60.648ZM5.8647 54.264L3.34459 55.8916L3.35644 55.9099L3.36855 55.9281L5.8647 54.264ZM11.4087 32.34L12.9869 34.8914L17.2767 32.2379L12.8971 29.7353L11.4087 32.34ZM6.5367 27.804L4.01799 29.4338L4.03466 29.4595L4.05185 29.4849L6.5367 27.804ZM13.6767 6.468L12.2513 3.82828L12.24 3.83433L12.2289 3.84048L13.6767 6.468ZM32.0727 6.468L30.6249 9.09551L30.636 9.10166L30.6473 9.10771L32.0727 6.468ZM38.6247 12.6L36.0621 14.1598L36.0744 14.18L36.0869 14.1999L38.6247 12.6ZM39.0447 28.056L36.6185 26.2915L36.6136 26.2983L36.6087 26.3051L39.0447 28.056ZM17.0367 15.708L19.1176 17.869L19.1191 17.8675L17.0367 15.708ZM17.0367 26.964L14.9154 29.0853L14.9547 29.1246L14.9954 29.1624L17.0367 26.964ZM28.6287 26.88L26.5463 24.7205L26.5267 24.7394L26.5074 24.7587L28.6287 26.88ZM28.6287 15.708L26.5074 17.8293L26.5467 17.8686L26.5874 17.9064L28.6287 15.708ZM29.7207 51.324L31.701 53.5775L31.72 53.5608L31.7387 53.5438L29.7207 51.324ZM29.7207 39.228L27.7027 41.4478L27.7214 41.4648L27.7404 41.4815L29.7207 39.228ZM16.1127 39.228L18.093 41.4815L18.112 41.4648L18.1307 41.4478L16.1127 39.228ZM16.1127 51.324L14.0947 53.5438L14.1134 53.5608L14.1324 53.5775L16.1127 51.324ZM32.6373 34.9173C34.9008 36.2658 36.5777 37.899 37.7539 39.7991L42.8555 36.6409C41.1197 33.837 38.7086 31.5502 35.7081 29.7627L32.6373 34.9173ZM37.7992 39.87C39.0192 41.7226 39.5727 43.5637 39.5727 45.444H45.5727C45.5727 42.2843 44.6142 39.3094 42.8102 36.57L37.7992 39.87ZM39.5727 45.444C39.5727 48.0361 38.8562 50.3984 37.3886 52.5999L42.3809 55.9281C44.4972 52.7536 45.5727 49.2359 45.5727 45.444H39.5727ZM37.3646 52.6364C35.9301 54.8576 33.9554 56.6409 31.3638 57.9847L34.1257 63.3113C37.582 61.5191 40.3673 59.0464 42.4048 55.8916L37.3646 52.6364ZM31.3433 57.9954C28.8363 59.3199 26.0463 60 22.9167 60V66C26.9551 66 30.7171 65.1121 34.1461 63.3006L31.3433 57.9954ZM22.9167 60C19.7875 60 16.9606 59.3199 14.3857 57.9847L11.6238 63.3113C15.0968 65.1121 18.8779 66 22.9167 66V60ZM14.4061 57.9954C11.8617 56.6512 9.86486 54.8559 8.36085 52.5999L3.36855 55.9281C5.44854 59.0481 8.21173 61.5088 11.6033 63.3006L14.4061 57.9954ZM8.38482 52.6364C6.96126 50.4322 6.2607 48.0571 6.2607 45.444H0.260703C0.260703 49.2149 1.29615 52.7198 3.34459 55.8916L8.38482 52.6364ZM6.2607 45.444C6.2607 41.317 8.24441 37.8248 12.9869 34.8914L9.83055 29.7886C3.709 33.5752 0.260703 38.819 0.260703 45.444H6.2607ZM12.8971 29.7353C11.343 28.8472 10.0573 27.6542 9.02155 26.1231L4.05185 29.4849C5.5921 31.7618 7.55438 33.5928 9.92029 34.9447L12.8971 29.7353ZM9.05541 26.1742C8.17878 24.8194 7.6887 23.1626 7.6887 21.084H1.6887C1.6887 24.1574 2.43063 26.9806 4.01799 29.4338L9.05541 26.1742ZM7.6887 21.084C7.6887 18.5634 8.34409 16.2911 9.66248 14.1999L4.58693 11.0001C2.65732 14.0609 1.6887 17.4446 1.6887 21.084H7.6887ZM9.66248 14.1999C11.0079 12.0658 12.8115 10.37 15.1245 9.09551L12.2289 3.84048C9.05387 5.58998 6.48952 7.98219 4.58693 11.0001L9.66248 14.1999ZM15.1022 9.10771C17.4396 7.84547 20.0257 7.2 22.9167 7.2V1.2C19.0878 1.2 15.5138 2.06652 12.2513 3.82828L15.1022 9.10771ZM22.9167 7.2C25.8082 7.2 28.3563 7.84547 30.6249 9.09551L33.5205 3.84048C30.3011 2.06652 26.7452 1.2 22.9167 1.2V7.2ZM30.6473 9.10771C33.006 10.3815 34.7862 12.0637 36.0621 14.1598L41.1873 11.0402C39.3272 7.98434 36.7394 5.57854 33.4982 3.82828L30.6473 9.10771ZM36.0869 14.1999C37.4053 16.2911 38.0607 18.5634 38.0607 21.084H44.0607C44.0607 17.4446 43.0921 14.0609 41.1625 11.0001L36.0869 14.1999ZM38.0607 21.084C38.0607 23.3954 37.5123 25.0625 36.6185 26.2915L41.4709 29.8205C43.2651 27.3535 44.0607 24.3726 44.0607 21.084H38.0607ZM36.6087 26.3051C35.5874 27.7259 34.3084 28.8528 32.7414 29.7034L35.604 34.9766C37.957 33.6992 39.926 31.9701 41.4808 29.8069L36.6087 26.3051ZM22.9167 10.44C19.856 10.44 17.1286 11.4518 14.9543 13.5485L19.1191 17.8675C20.0808 16.9402 21.2734 16.44 22.9167 16.44V10.44ZM14.9558 13.547C12.814 15.6095 11.7687 18.2577 11.7687 21.252H17.7687C17.7687 19.7663 18.2354 18.7185 19.1176 17.869L14.9558 13.547ZM11.7687 21.252C11.7687 24.2787 12.7965 26.9664 14.9154 29.0853L19.158 24.8427C18.2529 23.9376 17.7687 22.8173 17.7687 21.252H11.7687ZM14.9954 29.1624C17.1753 31.1866 19.8891 32.148 22.9167 32.148V26.148C21.2403 26.148 20.0341 25.6534 19.0781 24.7656L14.9954 29.1624ZM22.9167 32.148C25.9434 32.148 28.6311 31.1202 30.75 29.0013L26.5074 24.7587C25.6023 25.6638 24.482 26.148 22.9167 26.148V32.148ZM30.7111 29.0395C32.8839 26.9443 33.9807 24.2806 33.9807 21.252H27.9807C27.9807 22.7034 27.5095 23.7917 26.5463 24.7205L30.7111 29.0395ZM33.9807 21.252C33.9807 18.2218 32.8809 15.5626 30.6701 13.5096L26.5874 17.9064C27.5125 18.7654 27.9807 19.8022 27.9807 21.252H33.9807ZM30.75 13.5867C28.6311 11.4678 25.9434 10.44 22.9167 10.44V16.44C24.482 16.44 25.6023 16.9242 26.5074 17.8293L30.75 13.5867ZM22.9167 56.76C26.2607 56.76 29.2532 55.7287 31.701 53.5775L27.7404 49.0705C26.4922 50.1673 24.9487 50.76 22.9167 50.76V56.76ZM31.7387 53.5438C34.1686 51.3349 35.4927 48.5304 35.4927 45.276H29.4927C29.4927 46.7256 28.9689 47.9531 27.7027 49.1042L31.7387 53.5438ZM35.4927 45.276C35.4927 41.984 34.1811 39.154 31.7011 36.9745L27.7404 41.4815C28.9563 42.55 29.4927 43.752 29.4927 45.276H35.4927ZM31.7387 37.0082C29.2943 34.7859 26.289 33.708 22.9167 33.708V39.708C24.9204 39.708 26.4511 40.31 27.7027 41.4478L31.7387 37.0082ZM22.9167 33.708C19.5444 33.708 16.5391 34.7859 14.0947 37.0082L18.1307 41.4478C19.3823 40.31 20.913 39.708 22.9167 39.708V33.708ZM14.1324 36.9745C11.6523 39.154 10.3407 41.984 10.3407 45.276H16.3407C16.3407 43.752 16.8771 42.55 18.093 41.4815L14.1324 36.9745ZM10.3407 45.276C10.3407 48.5304 11.6649 51.3349 14.0947 53.5438L18.1307 49.1042C16.8645 47.9531 16.3407 46.7256 16.3407 45.276H10.3407ZM14.1324 53.5775C16.5802 55.7287 19.5727 56.76 22.9167 56.76V50.76C20.8847 50.76 19.3412 50.1673 18.093 49.0705L14.1324 53.5775ZM61.2115 60.06L59.4115 62.46L59.421 62.4671L59.4306 62.4742L61.2115 60.06ZM53.5675 49.476L50.7613 50.5369L50.7657 50.5483L53.5675 49.476ZM53.5675 17.808L56.3694 18.8803L56.3737 18.8689L53.5675 17.808ZM61.2115 7.14L59.4306 4.72583L59.421 4.73287L59.4115 4.74L61.2115 7.14ZM85.4875 7.14L83.6875 9.54L83.697 9.54712L83.7066 9.55417L85.4875 7.14ZM93.2155 17.808L90.4093 18.8689L90.4137 18.8803L93.2155 17.808ZM93.2155 49.476L96.0174 50.5483L96.0217 50.5369L93.2155 49.476ZM85.4875 60.06L83.7066 57.6458L83.697 57.6529L83.6875 57.66L85.4875 60.06ZM81.7915 48.636L79.2265 47.0802L79.2171 47.0956L79.2079 47.1112L81.7915 48.636ZM81.7915 18.564L79.2079 20.0888L79.2171 20.1044L79.2265 20.1198L81.7915 18.564ZM64.9075 18.564L62.3425 17.0082L62.3331 17.0236L62.3239 17.0392L64.9075 18.564ZM64.9075 48.636L62.3239 50.1608L62.3331 50.1764L62.3425 50.1918L64.9075 48.636ZM73.3915 60.84C69.2556 60.84 65.8369 59.7442 62.9925 57.6458L59.4306 62.4742C63.4181 65.4158 68.1194 66.84 73.3915 66.84V60.84ZM63.0115 57.66C60.1711 55.5297 57.9355 52.4958 56.3693 48.4037L50.7657 50.5483C52.6716 55.5282 55.532 59.5503 59.4115 62.46L63.0115 57.66ZM56.3737 48.4151C54.7906 44.2277 53.9635 39.307 53.9635 33.6H47.9635C47.9635 39.877 48.8724 45.5403 50.7614 50.5369L56.3737 48.4151ZM53.9635 33.6C53.9635 27.8918 54.791 23.0044 56.3693 18.8803L50.7657 16.7357C48.872 21.6836 47.9635 27.3242 47.9635 33.6H53.9635ZM56.3737 18.8689C57.9429 14.7181 60.1797 11.6638 63.0115 9.54L59.4115 4.74C55.5233 7.65615 52.6642 11.7139 50.7614 16.7471L56.3737 18.8689ZM62.9925 9.55417C65.8369 7.45579 69.2556 6.36 73.3915 6.36V0.359997C68.1194 0.359997 63.4181 1.78421 59.4306 4.72583L62.9925 9.55417ZM73.3915 6.36C77.5282 6.36 80.9086 7.45584 83.6875 9.54L87.2875 4.74C83.3464 1.78416 78.6628 0.359997 73.3915 0.359997V6.36ZM83.7066 9.55417C86.5884 11.6801 88.8449 14.7308 90.4094 18.8689L96.0217 16.7471C94.1141 11.7012 91.2186 7.63987 87.2685 4.72583L83.7066 9.55417ZM90.4137 18.8803C91.992 23.0044 92.8195 27.8918 92.8195 33.6H98.8195C98.8195 27.3242 97.911 21.6836 96.0173 16.7357L90.4137 18.8803ZM92.8195 33.6C92.8195 39.307 91.9924 44.2277 90.4094 48.4151L96.0217 50.5369C97.9106 45.5403 98.8195 39.877 98.8195 33.6H92.8195ZM90.4137 48.4037C88.8524 52.4832 86.5972 55.5134 83.7066 57.6458L87.2685 62.4742C91.2098 59.5666 94.1066 55.5408 96.0173 50.5483L90.4137 48.4037ZM83.6875 57.66C80.9086 59.7442 77.5282 60.84 73.3915 60.84V66.84C78.6628 66.84 83.3464 65.4158 87.2875 62.46L83.6875 57.66ZM73.3915 56.76C78.1669 56.76 81.889 54.3734 84.3751 50.1608L79.2079 47.1112C77.662 49.7306 75.7841 50.76 73.3915 50.76V56.76ZM84.3565 50.1918C86.8429 46.0927 87.8995 40.4361 87.8995 33.6H81.8995C81.8995 39.9799 80.8841 44.3473 79.2265 47.0802L84.3565 50.1918ZM87.8995 33.6C87.8995 26.7639 86.8429 21.1073 84.3565 17.0082L79.2265 20.1198C80.8841 22.8527 81.8995 27.2201 81.8995 33.6H87.8995ZM84.3751 17.0392C81.889 12.8266 78.1669 10.44 73.3915 10.44V16.44C75.7841 16.44 77.662 17.4694 79.2079 20.0888L84.3751 17.0392ZM73.3915 10.44C68.6225 10.44 64.8837 12.8187 62.3425 17.0082L67.4725 20.1198C69.0754 17.4773 70.9925 16.44 73.3915 16.44V10.44ZM62.3239 17.0392C59.9098 21.1298 58.8835 26.7731 58.8835 33.6H64.8835C64.8835 27.2109 65.8733 22.8302 67.4911 20.0888L62.3239 17.0392ZM58.8835 33.6C58.8835 40.4269 59.9098 46.0702 62.3239 50.1608L67.4911 47.1112C65.8733 44.3698 64.8835 39.9891 64.8835 33.6H58.8835ZM62.3425 50.1918C64.8837 54.3813 68.6225 56.76 73.3915 56.76V50.76C70.9925 50.76 69.0754 49.7227 67.4725 47.0802L62.3425 50.1918ZM108.357 34.02L106.632 36.4746L106.67 36.501L106.708 36.5262L108.357 34.02ZM103.485 28.14L100.767 29.4087L100.772 29.4204L100.778 29.4322L103.485 28.14ZM103.485 11.508L106.193 12.8002L106.198 12.7884L106.204 12.7767L103.485 11.508ZM108.357 5.628L110.037 8.11377L110.06 8.09838L110.082 8.08257L108.357 5.628ZM122.637 5.628L120.912 8.08257L120.935 8.09838L120.958 8.11377L122.637 5.628ZM127.425 11.508L124.684 12.7264L124.7 12.7635L124.718 12.8002L127.425 11.508ZM127.341 28.14L124.646 26.8224L124.64 26.8351L124.634 26.8478L127.341 28.14ZM122.385 34.02L124.065 36.5058L124.072 36.5009L124.079 36.4959L122.385 34.02ZM113.565 61.992L111.658 64.3078L111.658 64.3078L113.565 61.992ZM112.977 56.532L110.476 54.8756L110.432 54.9421L110.391 55.0109L112.977 56.532ZM146.409 6.048L144.009 4.248L143.956 4.31831L143.908 4.39159L146.409 6.048ZM152.793 5.208L150.886 7.52379L150.886 7.52379L152.793 5.208ZM153.381 10.668L155.882 12.3244L155.927 12.2579L155.967 12.1891L153.381 10.668ZM119.949 61.152L122.349 62.952L122.402 62.8817L122.45 62.8084L119.949 61.152ZM119.361 26.208L121.949 27.7252L121.96 27.7062L121.971 27.687L119.361 26.208ZM119.361 13.44L116.734 14.8892L116.753 14.9234L116.773 14.9572L119.361 13.44ZM111.549 13.524L108.977 11.9805L108.969 11.9936L108.961 12.0068L111.549 13.524ZM111.549 26.208L108.939 27.687L108.95 27.7062L108.961 27.7252L111.549 26.208ZM144.561 61.74L142.836 64.1946L142.874 64.221L142.912 64.2463L144.561 61.74ZM139.605 55.86L136.91 57.1776L136.916 57.1897L136.922 57.2016L139.605 55.86ZM139.521 39.228L142.229 40.5202L142.234 40.5084L142.24 40.4967L139.521 39.228ZM144.393 33.348L146.073 35.8338L146.096 35.8184L146.118 35.8026L144.393 33.348ZM158.673 33.348L156.948 35.8026L156.971 35.8184L156.994 35.8338L158.673 33.348ZM163.461 39.228L160.72 40.4464L160.736 40.4835L160.754 40.5202L163.461 39.228ZM163.377 55.86L160.682 54.5424L160.676 54.5551L160.67 54.5678L163.377 55.86ZM158.421 61.74L160.101 64.2258L160.108 64.2209L160.115 64.2159L158.421 61.74ZM155.397 53.928L157.985 55.4452L157.996 55.4262L158.007 55.407L155.397 53.928ZM155.397 41.16L152.77 42.6092L152.789 42.6434L152.809 42.6772L155.397 41.16ZM147.585 41.244L145.013 39.7005L145.005 39.7136L144.997 39.7268L147.585 41.244ZM147.585 53.928L144.975 55.407L144.986 55.4262L144.997 55.4452L147.585 53.928ZM115.497 33.12C113.431 33.12 111.627 32.5805 110.006 31.5137L106.708 36.5262C109.343 38.2595 112.3 39.12 115.497 39.12V33.12ZM110.082 31.5654C108.465 30.429 107.164 28.8838 106.193 26.8478L100.778 29.4322C102.158 32.3242 104.106 34.699 106.632 36.4746L110.082 31.5654ZM106.204 26.8713C105.229 24.7824 104.721 22.4485 104.721 19.824H98.7212C98.7212 23.2475 99.3895 26.4576 100.767 29.4087L106.204 26.8713ZM104.721 19.824C104.721 17.1336 105.233 14.8117 106.193 12.8002L100.778 10.2158C99.3858 13.1323 98.7212 16.3544 98.7212 19.824H104.721ZM106.204 12.7767C107.176 10.6923 108.464 9.1764 110.037 8.11377L106.678 3.14223C104.106 4.87959 102.146 7.28373 100.767 10.2393L106.204 12.7767ZM110.082 8.08257C111.617 7.00392 113.386 6.444 115.497 6.444V0.443996C112.232 0.443996 109.241 1.34007 106.632 3.17342L110.082 8.08257ZM115.497 6.444C117.608 6.444 119.377 7.00392 120.912 8.08257L124.362 3.17342C121.753 1.34007 118.762 0.443996 115.497 0.443996V6.444ZM120.958 8.11377C122.517 9.16727 123.768 10.6654 124.684 12.7264L130.167 10.2896C128.843 7.31059 126.902 4.88872 124.317 3.14223L120.958 8.11377ZM124.718 12.8002C125.678 14.8117 126.189 17.1336 126.189 19.824H132.189C132.189 16.3544 131.525 13.1323 130.133 10.2158L124.718 12.8002ZM126.189 19.824C126.189 22.4277 125.662 24.7441 124.646 26.8224L130.036 29.4576C131.484 26.4959 132.189 23.2683 132.189 19.824H126.189ZM124.634 26.8478C123.671 28.864 122.357 30.4042 120.691 31.5441L124.079 36.4959C126.669 34.7238 128.659 32.344 130.049 29.4322L124.634 26.8478ZM120.706 31.5342C119.134 32.5963 117.423 33.12 115.497 33.12V39.12C118.611 39.12 121.493 38.2437 124.065 36.5058L120.706 31.5342ZM116.505 60.168C116.338 60.168 116.011 60.1201 115.472 59.6762L111.658 64.3078C113.023 65.4319 114.656 66.168 116.505 66.168V60.168ZM115.472 59.6762C115.174 59.4302 115.137 59.2825 115.137 59.052H109.137C109.137 61.1735 110.053 62.9858 111.658 64.3078L115.472 59.6762ZM115.137 59.052C115.137 59.0715 115.134 59.0026 115.193 58.8247C115.253 58.6459 115.365 58.3903 115.563 58.0531L110.391 55.0109C109.69 56.2039 109.137 57.5813 109.137 59.052H115.137ZM115.478 58.1884L148.91 7.70441L143.908 4.39159L110.476 54.8756L115.478 58.1884ZM148.809 7.848C149.439 7.00811 149.785 7.032 149.853 7.032V1.032C147.346 1.032 145.395 2.39988 144.009 4.248L148.809 7.848ZM149.853 7.032C150.02 7.032 150.347 7.07988 150.886 7.52379L154.7 2.89221C153.335 1.76811 151.702 1.032 149.853 1.032V7.032ZM150.886 7.52379C151.185 7.76983 151.221 7.91747 151.221 8.148H157.221C157.221 6.02652 156.306 4.21416 154.7 2.89221L150.886 7.52379ZM151.221 8.148C151.221 8.12852 151.224 8.19738 151.165 8.37531C151.106 8.55411 150.994 8.80966 150.795 9.14694L155.967 12.1891C156.669 10.9961 157.221 9.61868 157.221 8.148H151.221ZM150.88 9.01159L117.448 59.4956L122.45 62.8084L155.882 12.3244L150.88 9.01159ZM117.549 59.352C116.919 60.1919 116.574 60.168 116.505 60.168V66.168C119.013 66.168 120.963 64.8001 122.349 62.952L117.549 59.352ZM115.497 31.644C118.373 31.644 120.561 30.0937 121.949 27.7252L116.773 24.6908C116.258 25.5703 115.869 25.644 115.497 25.644V31.644ZM121.971 27.687C123.25 25.43 123.789 22.7513 123.789 19.824H117.789C117.789 22.0487 117.376 23.626 116.751 24.729L121.971 27.687ZM123.789 19.824C123.789 16.8608 123.258 14.1546 121.949 11.9228L116.773 14.9572C117.369 15.9734 117.789 17.5232 117.789 19.824H123.789ZM121.988 11.9908C120.631 9.53167 118.402 8.004 115.497 8.004V14.004C115.952 14.004 116.299 14.1003 116.734 14.8892L121.988 11.9908ZM115.497 8.004C112.588 8.004 110.396 9.61511 108.977 11.9805L114.122 15.0675C114.718 14.0729 115.159 14.004 115.497 14.004V8.004ZM108.961 12.0068C107.658 14.2301 107.121 16.9031 107.121 19.824H113.121C113.121 17.5929 113.537 16.0659 114.137 15.0412L108.961 12.0068ZM107.121 19.824C107.121 22.7513 107.66 25.43 108.939 27.687L114.159 24.729C113.534 23.626 113.121 22.0487 113.121 19.824H107.121ZM108.961 27.7252C110.373 30.1346 112.607 31.644 115.497 31.644V25.644C115.028 25.644 114.629 25.5294 114.137 24.6908L108.961 27.7252ZM151.533 60.84C149.606 60.84 147.854 60.3154 146.21 59.2337L142.912 64.2463C145.524 65.9646 148.42 66.84 151.533 66.84V60.84ZM146.286 59.2854C144.656 58.1399 143.318 56.5777 142.288 54.5184L136.922 57.2016C138.356 60.0703 140.322 62.4281 142.836 64.1946L146.286 59.2854ZM142.3 54.5424C141.284 52.4641 140.757 50.1477 140.757 47.544H134.757C134.757 50.9883 135.462 54.2159 136.91 57.1776L142.3 54.5424ZM140.757 47.544C140.757 44.8536 141.269 42.5317 142.229 40.5202L136.814 37.9358C135.422 40.8523 134.757 44.0744 134.757 47.544H140.757ZM142.24 40.4967C143.212 38.4123 144.5 36.8964 146.073 35.8338L142.714 30.8622C140.142 32.5996 138.182 35.0037 136.803 37.9593L142.24 40.4967ZM146.118 35.8026C147.653 34.7239 149.422 34.164 151.533 34.164V28.164C148.268 28.164 145.277 29.0601 142.668 30.8934L146.118 35.8026ZM151.533 34.164C153.644 34.164 155.413 34.7239 156.948 35.8026L160.398 30.8934C157.789 29.0601 154.798 28.164 151.533 28.164V34.164ZM156.994 35.8338C158.553 36.8873 159.804 38.3854 160.72 40.4464L166.203 38.0096C164.879 35.0306 162.938 32.6087 160.353 30.8622L156.994 35.8338ZM160.754 40.5202C161.714 42.5317 162.225 44.8536 162.225 47.544H168.225C168.225 44.0744 167.561 40.8523 166.169 37.9358L160.754 40.5202ZM162.225 47.544C162.225 50.1477 161.698 52.4641 160.682 54.5424L166.072 57.1776C167.52 54.2159 168.225 50.9883 168.225 47.544H162.225ZM160.67 54.5678C159.707 56.584 158.393 58.1242 156.727 59.2641L160.115 64.2159C162.705 62.4438 164.695 60.064 166.085 57.1522L160.67 54.5678ZM156.742 59.2542C155.17 60.3163 153.46 60.84 151.533 60.84V66.84C154.647 66.84 157.529 65.9637 160.101 64.2258L156.742 59.2542ZM151.533 59.364C154.409 59.364 156.597 57.8137 157.985 55.4452L152.809 52.4108C152.294 53.2903 151.905 53.364 151.533 53.364V59.364ZM158.007 55.407C159.286 53.15 159.825 50.4713 159.825 47.544H153.825C153.825 49.7687 153.412 51.346 152.787 52.449L158.007 55.407ZM159.825 47.544C159.825 44.5808 159.294 41.8746 157.985 39.6428L152.809 42.6772C153.405 43.6934 153.825 45.2432 153.825 47.544H159.825ZM158.024 39.7108C156.667 37.2517 154.438 35.724 151.533 35.724V41.724C151.988 41.724 152.335 41.8203 152.77 42.6092L158.024 39.7108ZM151.533 35.724C148.624 35.724 146.432 37.3351 145.013 39.7005L150.158 42.7875C150.754 41.7929 151.195 41.724 151.533 41.724V35.724ZM144.997 39.7268C143.694 41.9501 143.157 44.6231 143.157 47.544H149.157C149.157 45.3129 149.573 43.7859 150.173 42.7612L144.997 39.7268ZM143.157 47.544C143.157 50.4713 143.696 53.15 144.975 55.407L150.195 52.449C149.57 51.346 149.157 49.7687 149.157 47.544H143.157ZM144.997 55.4452C146.409 57.8546 148.643 59.364 151.533 59.364V53.364C151.064 53.364 150.665 53.2494 150.173 52.4108L144.997 55.4452Z" fill="#ED7E31"/>
</svg>
