<svg width="124" height="124" viewBox="0 0 124 124" fill="none" xmlns="http://www.w3.org/2000/svg">
<path fill-rule="evenodd" clip-rule="evenodd" d="M58.2111 47.3611C59.2444 47.3611 59.9333 46.6722 59.9333 45.6388V44.9499H64.9278C65.2722 48.7388 66.8222 52.1833 69.0611 54.9388L65.6167 58.5555L65.2722 58.2111C64.5833 57.5222 63.55 57.5222 62.8611 58.2111C62.1722 58.8999 62.1722 59.9333 62.8611 60.6222L66.1333 63.8944C66.4778 64.2388 66.9944 64.4111 67.3389 64.4111C67.6833 64.4111 68.2 64.2388 68.5444 63.8944C69.2333 63.2055 69.2333 62.1722 68.5444 61.4833L68.2 61.1388L71.8167 57.5222C74.5722 59.7611 78.0167 61.3111 81.8056 61.6555V66.6499H81.1167C80.0833 66.6499 79.3944 67.3388 79.3944 68.3722C79.3944 69.4055 80.0833 70.0944 81.1167 70.0944H85.7667C86.8 70.0944 87.4889 69.4055 87.4889 68.3722C87.4889 67.3388 86.8 66.6499 85.7667 66.6499H85.0778V61.6555C88.8667 61.3111 92.3111 59.7611 95.0667 57.5222L98.6833 61.1388L98.3389 61.4833C97.65 62.1722 97.65 63.2055 98.3389 63.8944C98.6833 64.2388 99.2 64.4111 99.5444 64.4111C99.8889 64.4111 100.406 64.2388 100.75 63.8944L102.472 62.1722L104.194 60.4499C104.883 59.7611 104.883 58.7277 104.194 58.0388C103.506 57.3499 102.472 57.3499 101.783 58.0388L101.094 58.5555L97.65 55.1111C99.8889 52.3555 101.439 48.9111 101.783 45.1222H106.778V45.8111C106.778 46.8444 107.467 47.5333 108.5 47.5333C109.533 47.5333 110.222 46.8444 110.222 45.8111V41.1611C110.222 40.1277 109.533 39.4388 108.5 39.4388C107.467 39.4388 106.778 40.1277 106.778 41.1611V41.8499H101.783C101.439 38.0611 99.8889 34.6166 97.65 31.8611L101.267 28.2444L101.611 28.5888C101.956 28.9333 102.472 29.1055 102.817 29.1055C103.161 29.1055 103.678 28.9333 104.022 28.5888C104.711 27.8999 104.711 26.8666 104.022 26.1777L100.75 22.9055C100.061 22.2166 99.0278 22.2166 98.3389 22.9055C97.65 23.5944 97.65 24.6277 98.3389 25.3166L98.6833 25.6611L95.0667 29.2777C92.3111 27.0388 88.8667 25.4888 85.0778 25.1444V20.1499H85.7667C86.8 20.1499 87.4889 19.4611 87.4889 18.4277C87.4889 17.3944 86.8 16.7055 85.7667 16.7055H81.1167C80.0833 16.7055 79.3944 17.3944 79.3944 18.4277C79.3944 19.4611 80.0833 20.1499 81.1167 20.1499H81.8056V25.1444C78.0167 25.4888 74.5722 27.0388 71.8167 29.2777L68.2 25.6611L68.5444 25.3166C69.2333 24.6277 69.2333 23.5944 68.5444 22.9055C67.8556 22.2166 66.8222 22.2166 66.1333 22.9055L62.8611 26.1777C62.1722 26.8666 62.1722 27.8999 62.8611 28.5888C63.2056 28.9333 63.7222 29.1055 64.0667 29.1055C64.4111 29.1055 64.9278 28.9333 65.2722 28.5888L65.6167 28.2444L69.2333 31.8611C66.9944 34.6166 65.4444 38.0611 65.1 41.8499H60.1056V41.1611C60.1056 40.1277 59.4167 39.4388 58.3833 39.4388C57.35 39.4388 56.6611 40.1277 56.6611 41.1611V45.8111C56.4889 46.4999 57.35 47.3611 58.2111 47.3611ZM27.0388 86.8H20.6666C18.7722 86.8 17.2222 85.25 17.2222 83.3555V58.5555C17.2222 56.6611 18.7722 55.1111 20.6666 55.1111H27.0388C28.9333 55.1111 30.4833 56.6611 30.4833 58.5555V83.3555C30.3111 85.25 28.9333 86.8 27.0388 86.8ZM78.0167 104.194H101.439C104.539 104.194 106.95 101.783 107.122 98.511C107.122 95.5833 104.711 93.1721 101.783 93.1721H84.7334C79.7389 93.1721 75.0889 91.9666 70.7834 89.7277C67.8556 91.7944 63.7222 91.4499 61.1389 88.8666L48.9111 76.6388C48.2222 75.9499 48.2222 74.9166 48.9111 74.2277C49.6 73.5388 50.6334 73.5388 51.3222 74.2277L63.55 86.4555C65.1 88.0055 67.6834 88.0055 69.2334 86.4555C70.7834 84.9055 70.7834 82.3221 69.2334 80.7721L53.9056 65.4444C49.9445 61.4832 44.4334 59.2444 38.75 59.2444H33.7556V83.3555V83.6999C36.6834 84.561 44.0889 87.3166 48.5667 91.7944L48.7389 91.9666C56.6611 99.8888 66.9945 104.194 78.0167 104.194Z" fill="#FFE8A4"/>
<path fill-rule="evenodd" clip-rule="evenodd" d="M58.2111 47.3611C59.2445 47.3611 59.9334 46.6722 59.9334 45.6388V44.9499H64.9278C65.2723 48.7388 66.8223 52.1833 69.0611 54.9388L65.6167 58.5555L65.2723 58.2111C64.5834 57.5222 63.55 57.5222 62.8611 58.2111C62.1723 58.8999 62.1723 59.9333 62.8611 60.6222L66.1334 63.8944C66.4778 64.2388 66.9945 64.4111 67.3389 64.4111C67.6834 64.4111 68.2 64.2388 68.5445 63.8944C69.2334 63.2055 69.2334 62.1722 68.5445 61.4833L68.2 61.1388L71.8167 57.5222C74.5723 59.7611 78.0167 61.3111 81.8056 61.6555V66.6499H81.1167C80.0834 66.6499 79.3945 67.3388 79.3945 68.3722C79.3945 69.4055 80.0834 70.0944 81.1167 70.0944H85.7667C86.8 70.0944 87.4889 69.4055 87.4889 68.3722C87.4889 67.3388 86.8 66.6499 85.7667 66.6499H85.0778V61.6555C88.8667 61.3111 92.3111 59.7611 95.0667 57.5222L98.6834 61.1388L98.3389 61.4833C97.65 62.1722 97.65 63.2055 98.3389 63.8944C98.6834 64.2388 99.2 64.4111 99.5445 64.4111C99.8889 64.4111 100.406 64.2388 100.75 63.8944L102.472 62.1722L104.194 60.4499C104.883 59.7611 104.883 58.7277 104.194 58.0388C103.506 57.3499 102.472 57.3499 101.783 58.0388L101.094 58.5555L97.65 55.1111C99.8889 52.3555 101.439 48.9111 101.783 45.1222H106.778V45.8111C106.778 46.8444 107.467 47.5333 108.5 47.5333C109.533 47.5333 110.222 46.8444 110.222 45.8111V41.1611C110.222 40.1277 109.533 39.4388 108.5 39.4388C107.467 39.4388 106.778 40.1277 106.778 41.1611V41.8499H101.783C101.439 38.0611 99.8889 34.6166 97.65 31.8611L101.267 28.2444L101.611 28.5888C101.956 28.9333 102.472 29.1055 102.817 29.1055C103.161 29.1055 103.678 28.9333 104.022 28.5888C104.711 27.8999 104.711 26.8666 104.022 26.1777L100.75 22.9055C100.061 22.2166 99.0278 22.2166 98.3389 22.9055C97.65 23.5944 97.65 24.6277 98.3389 25.3166L98.6834 25.6611L95.0667 29.2777C92.3111 27.0388 88.8667 25.4888 85.0778 25.1444V20.1499H85.7667C86.8 20.1499 87.4889 19.4611 87.4889 18.4277C87.4889 17.3944 86.8 16.7055 85.7667 16.7055H81.1167C80.0834 16.7055 79.3945 17.3944 79.3945 18.4277C79.3945 19.4611 80.0834 20.1499 81.1167 20.1499H81.8056V25.1444C78.0167 25.4888 74.5723 27.0388 71.8167 29.2777L68.2 25.6611L68.5445 25.3166C69.2334 24.6277 69.2334 23.5944 68.5445 22.9055C67.8556 22.2166 66.8223 22.2166 66.1334 22.9055L62.8611 26.1777C62.1723 26.8666 62.1723 27.8999 62.8611 28.5888C63.2056 28.9333 63.7223 29.1055 64.0667 29.1055C64.4111 29.1055 64.9278 28.9333 65.2723 28.5888L65.6167 28.2444L69.2334 31.8611C66.9945 34.6166 65.4445 38.0611 65.1 41.8499H60.1056V41.1611C60.1056 40.1277 59.4167 39.4388 58.3834 39.4388C57.35 39.4388 56.6611 40.1277 56.6611 41.1611V45.8111C56.4889 46.4999 57.35 47.3611 58.2111 47.3611ZM101.439 89.9H84.3889C80.4278 89.9 76.4667 89.0389 72.85 87.3166C74.4 84.5611 73.8834 80.9444 71.4722 78.5333L56.1445 63.2055C51.4945 58.5555 45.1222 55.9722 38.5778 55.9722H33.0667C32.0333 53.5611 29.6222 51.8389 26.6945 51.8389H20.3222C16.5333 51.8389 13.4333 54.9389 13.4333 58.7277V83.5277C13.4333 87.3166 16.5333 90.4166 20.3222 90.4166H26.6945C29.1056 90.4166 31.1722 89.2111 32.55 87.1444C35.3056 88.0055 42.1945 90.5889 45.9834 94.3777L46.1556 94.55C54.5945 102.989 65.9611 107.639 77.8445 107.639H101.267C106.089 107.639 110.05 103.678 110.05 98.8555C110.394 93.8611 106.433 89.9 101.439 89.9ZM27.0389 86.8H20.6666C18.7722 86.8 17.2222 85.25 17.2222 83.3555V58.5555C17.2222 56.6611 18.7722 55.1111 20.6666 55.1111H27.0389C28.9333 55.1111 30.4833 56.6611 30.4833 58.5555V83.3555C30.3111 85.25 28.9333 86.8 27.0389 86.8ZM78.0167 104.194H101.439C104.539 104.194 106.95 101.783 107.122 98.511C107.122 95.5833 104.711 93.1721 101.783 93.1721H84.7334C79.7389 93.1721 75.0889 91.9666 70.7834 89.7277C67.8556 91.7944 63.7223 91.4499 61.1389 88.8666L48.9112 76.6388C48.2223 75.9499 48.2223 74.9166 48.9112 74.2277C49.6001 73.5388 50.6334 73.5388 51.3223 74.2277L63.5501 86.4555C65.1001 88.0055 67.6834 88.0055 69.2334 86.4555C70.7834 84.9055 70.7834 82.3221 69.2334 80.7721L53.9056 65.4444C49.9445 61.4832 44.4334 59.2444 38.7501 59.2444H33.7556V83.3555V83.6999C36.6834 84.561 44.0889 87.3166 48.5667 91.7944L48.7389 91.9666C56.6612 99.8888 66.9945 104.194 78.0167 104.194ZM98.3388 43.2277C98.3388 34.961 91.6222 28.2444 83.3555 28.2444C75.0888 28.2444 68.3722 34.961 68.3722 43.2277C68.3722 51.4944 75.0888 58.211 83.3555 58.211C91.6222 58.211 98.3388 51.4944 98.3388 43.2277Z" fill="#ED7E31"/>
<path fill-rule="evenodd" clip-rule="evenodd" d="M83.3555 39.9555C84.5611 39.9555 85.7666 38.9221 85.7666 37.5443C85.7666 36.3388 84.7333 35.1332 83.3555 35.1332C82.1499 35.1332 80.9444 36.1666 80.9444 37.5443C81.1166 38.9221 82.1499 39.9555 83.3555 39.9555ZM78.7055 49.4277C79.9111 49.4277 81.1167 48.3943 81.1167 47.0166C81.1167 45.811 80.0833 44.6055 78.7055 44.6055C77.5 44.6055 76.2944 45.6388 76.2944 47.0166C76.4667 48.3943 77.5 49.4277 78.7055 49.4277ZM90.4166 47.0166C90.4166 48.3943 89.211 49.4277 88.0055 49.4277C86.7999 49.4277 85.7666 48.3943 85.5944 47.0166C85.5944 45.6388 86.7999 44.6055 88.0055 44.6055C89.3833 44.6055 90.4166 45.811 90.4166 47.0166Z" fill="#ED7E31"/>
</svg>
