<svg width="50" height="50" viewBox="0 0 50 50" fill="none" xmlns="http://www.w3.org/2000/svg">
<path fill-rule="evenodd" clip-rule="evenodd" d="M44.6428 10.7143C47.6015 10.7143 49.9999 8.31581 49.9999 5.35714C49.9999 2.39847 47.6015 0 44.6428 0C41.6841 0 39.2856 2.39847 39.2856 5.35714C39.2856 8.31581 41.6841 10.7143 44.6428 10.7143Z" fill="#F2B829"/>
<path fill-rule="evenodd" clip-rule="evenodd" d="M22.3214 41.0715C14.9248 41.0715 8.92857 35.0753 8.92857 27.6786C8.92857 20.282 14.9248 14.2858 22.3214 14.2858C29.7181 14.2858 35.7143 20.282 35.7143 27.6786C35.7143 35.0753 29.7181 41.0715 22.3214 41.0715ZM22.3214 5.35718C9.99353 5.35718 0 15.3507 0 27.6786C0 40.0065 9.99353 50 22.3214 50C34.6493 50 44.6429 40.0065 44.6429 27.6786C44.6429 15.3507 34.6493 5.35718 22.3214 5.35718Z" fill="url(#paint0_linear)"/>
<defs>
<linearGradient id="paint0_linear" x1="22.3214" y1="72.3215" x2="66.9643" y2="27.6786" gradientUnits="userSpaceOnUse">
<stop stop-color="#ED7E31"/>
<stop offset="1" stop-color="#F2B829"/>
</linearGradient>
</defs>
</svg>
