<svg width="42" height="42" viewBox="0 0 42 42" fill="none" xmlns="http://www.w3.org/2000/svg">
<g opacity="0.2">
<rect x="1" y="1" width="40" height="40" rx="16" stroke="#12B2B3"/>
</g>
<path fill-rule="evenodd" clip-rule="evenodd" d="M15.7664 31.5005H15C13.067 31.5005 11.5 29.9335 11.5 28.0005V11.0005C11.5 10.6522 11.8471 10.4106 12.1737 10.5316L16.0699 11.9752L19.8206 10.5337C19.9343 10.49 20.0601 10.4894 20.1743 10.5318L24.024 11.9634L27.8238 10.5325C28.1508 10.4094 28.5 10.6511 28.5 11.0005V26.5005H15.2397L16.183 28.3315C16.3993 28.7512 16.5 29.1428 16.5 29.5213C16.5 29.8917 16.4036 30.2685 16.1972 30.6676L15.7664 31.5005ZM20.5 16.5004V16.0004C20.5 15.7243 20.2761 15.5004 20 15.5004C19.7239 15.5004 19.5 15.7243 19.5 16.0004V16.5004H19.0139C18.1855 16.5004 17.5139 17.172 17.5139 18.0004V18.5012C17.5139 19.3296 18.1855 20.0012 19.0139 20.0012H21C21.2761 20.0012 21.5 20.225 21.5 20.5012V21.0004C21.5 21.2766 21.2761 21.5004 21 21.5004H18.5123C18.4917 21.2503 18.286 21.0501 18.0291 21.0423C17.7531 21.0339 17.5226 21.2508 17.5142 21.5269L17.5002 21.9852C17.4917 22.2672 17.7179 22.5004 18 22.5004H19.5V23.0004C19.5 23.2766 19.7239 23.5004 20 23.5004C20.2761 23.5004 20.5 23.2766 20.5 23.0004V22.5004H21C21.8284 22.5004 22.5 21.8289 22.5 21.0004V20.5012C22.5 19.6728 21.8284 19.0012 21 19.0012H19.0139C18.7378 19.0012 18.5139 18.7773 18.5139 18.5012V18.0004C18.5139 17.7243 18.7378 17.5004 19.0139 17.5004H21.5149C21.5691 17.7179 21.7658 17.879 22 17.879C22.2761 17.879 22.5 17.6551 22.5 17.379V17.0004C22.5 16.7243 22.2761 16.5004 22 16.5004H20.5Z" fill="#12B2B3"/>
<path opacity="0.3" fill-rule="evenodd" clip-rule="evenodd" d="M29.5688 27.5C30.9272 27.5257 32.0206 28.6349 32.0206 29.9995C32.0206 31.3803 30.9013 32.4995 29.5206 32.4995H16.5099C17.3271 31.7012 17.7619 30.8797 17.7603 30.0173C17.7587 29.1547 17.3205 28.321 16.5 27.5H29.5688V27.5Z" fill="#12B2B3"/>
</svg>
