<svg width="42" height="42" viewBox="0 0 42 42" fill="none" xmlns="http://www.w3.org/2000/svg">
<g opacity="0.2">
<rect x="1" y="1" width="40" height="40" rx="16" stroke="#12B2B3"/>
</g>
<path fill-rule="evenodd" clip-rule="evenodd" d="M16.958 17.4461C18.0437 15.8897 18.7213 14.1039 18.9932 12.0821C19.0191 11.8895 19.1542 11.7294 19.3397 11.6715C21.2093 11.0878 22.2722 12.0153 22.2547 14.1302C22.2513 14.5407 22.2325 14.9056 22.1925 15.4637C22.1032 16.7102 22.1103 17.0504 22.2487 17.2793C22.3817 17.4993 22.8134 17.5744 23.8345 17.3789C24.1567 17.3172 24.4799 17.2472 24.8379 17.1632C24.996 17.1261 26.1343 16.8459 26.4252 16.7826C26.9803 16.6617 27.3785 16.6105 27.7287 16.6322C28.6774 16.6909 29.1809 17.307 29.2679 18.4876C29.4211 20.5666 28.9477 24.7425 28.4755 26.2807C27.9929 27.8525 27.1513 28.4458 25.1312 28.4816C23.8324 28.5047 21.8348 28.5047 19.1291 28.4816C18.4384 28.4654 17.8125 28.3305 17.2557 28.0782C17.412 27.7518 17.4995 27.3861 17.4995 27V19C17.4995 18.4127 17.297 17.8727 16.958 17.4461Z" fill="#12B2B3"/>
<path opacity="0.3" fill-rule="evenodd" clip-rule="evenodd" d="M14 17.5C13.1716 17.5 12.5 18.1716 12.5 19V27C12.5 27.8284 13.1716 28.5 14 28.5H15C15.8284 28.5 16.5 27.8284 16.5 27V19C16.5 18.1716 15.8284 17.5 15 17.5H14Z" fill="#12B2B3"/>
</svg>
