<svg width="42" height="42" viewBox="0 0 42 42" fill="none" xmlns="http://www.w3.org/2000/svg">
<g opacity="0.2">
<rect x="0.999023" y="1" width="40" height="40" rx="16" stroke="#12B2B3"/>
</g>
<path fill-rule="evenodd" clip-rule="evenodd" d="M30.3394 12.0596C31.0183 15.7034 29.4968 19.5681 26.4405 21.9859L18.3426 28.3922C18.1436 28.5496 17.8582 28.533 17.6788 28.3536L13.6455 24.3203C13.4661 24.1408 13.4495 23.8555 13.6069 23.6565L20.0132 15.5585C22.4309 12.5023 26.2956 10.9807 29.9395 11.6596C30.1426 11.6975 30.3016 11.8564 30.3394 12.0596ZM23.2313 15.2323C22.2549 16.2086 22.2549 17.7915 23.2313 18.7678C24.2076 19.7441 25.7905 19.7441 26.7668 18.7678C27.7431 17.7915 27.7431 16.2086 26.7668 15.2323C25.7905 14.256 24.2076 14.256 23.2313 15.2323ZM26.0597 18.0607C25.4739 18.6465 24.5241 18.6465 23.9384 18.0607C23.3526 17.4749 23.3526 16.5252 23.9384 15.9394C24.5241 15.3536 25.4739 15.3536 26.0597 15.9394C26.6455 16.5252 26.6455 17.4749 26.0597 18.0607Z" fill="#12B2B3"/>
<path opacity="0.3" fill-rule="evenodd" clip-rule="evenodd" d="M16.499 28.6567L16.0549 29.1009C15.5228 29.633 14.66 29.633 14.1279 29.1009L12.8981 27.8711C12.366 27.339 12.366 26.4762 12.8981 25.9441L13.3423 25.5L16.499 28.6567ZM13.8716 21.5L11.7287 20.0754C11.4383 19.8823 11.42 19.4634 11.6926 19.246L15.5615 16.1723C16.3951 15.5099 17.5046 15.3267 18.4979 15.6685L13.8716 21.5ZM26.316 23.5C26.6801 24.5129 26.4951 25.6517 25.8135 26.4984L22.7487 30.3064C22.5317 30.579 22.1136 30.5608 21.9209 30.2702L20.499 28.1261L26.316 23.5V23.5Z" fill="#12B2B3"/>
</svg>
