<svg width="52" height="52" viewBox="0 0 52 52" fill="none" xmlns="http://www.w3.org/2000/svg">
<g opacity="0.2">
<path fill-rule="evenodd" clip-rule="evenodd" d="M25.6756 51.3512C39.8559 51.3512 51.3512 39.8559 51.3512 25.6756C51.3512 11.4954 39.8559 0 25.6756 0C11.4954 0 0 11.4954 0 25.6756C0 39.8559 11.4954 51.3512 25.6756 51.3512Z" stroke="#F2B829"/>
</g>
<path d="M26.4417 21.2189C26.7084 21.2189 26.9324 21.3149 27.1137 21.5069C27.295 21.6882 27.3857 21.9176 27.3857 22.1949V31.4429C27.3857 31.7202 27.2844 31.9549 27.0817 32.1469C26.879 32.3282 26.6284 32.4189 26.3297 32.4189C26.031 32.4189 25.7857 32.3282 25.5937 32.1469C25.4017 31.9549 25.3057 31.7202 25.3057 31.4429V23.8589L24.3137 24.4669C24.1537 24.5629 23.983 24.6109 23.8017 24.6109C23.535 24.6109 23.3057 24.5096 23.1137 24.3069C22.9324 24.1042 22.8417 23.8802 22.8417 23.6349C22.8417 23.4642 22.8844 23.3042 22.9697 23.1549C23.0657 23.0056 23.1884 22.8882 23.3377 22.8029L25.7537 21.3629C25.935 21.2669 26.1644 21.2189 26.4417 21.2189Z" fill="#ED7E31"/>
</svg>
