<svg width="53" height="53" viewBox="0 0 53 53" fill="none" xmlns="http://www.w3.org/2000/svg">
<g opacity="0.2">
<path fill-rule="evenodd" clip-rule="evenodd" d="M26.6756 52.3512C40.8559 52.3512 52.3512 40.8559 52.3512 26.6756C52.3512 12.4954 40.8559 1 26.6756 1C12.4954 1 1 12.4954 1 26.6756C1 40.8559 12.4954 52.3512 26.6756 52.3512Z" stroke="#F2B829"/>
</g>
<g clip-path="url(#clip0)">
<path fill-rule="evenodd" clip-rule="evenodd" d="M26.6757 45.0183C37.3109 45.0183 45.9324 36.3967 45.9324 25.7616C45.9324 15.1264 37.3109 6.50484 26.6757 6.50484C16.0405 6.50484 7.41895 15.1264 7.41895 25.7616C7.41895 36.3967 16.0405 45.0183 26.6757 45.0183Z" fill="white"/>
<path d="M27.767 25.4008C28.3536 25.4222 28.871 25.5928 29.319 25.9128C29.7776 26.2328 30.1296 26.6542 30.375 27.1768C30.6203 27.6888 30.743 28.2382 30.743 28.8248C30.743 29.6035 30.567 30.2862 30.215 30.8728C29.863 31.4488 29.367 31.8915 28.727 32.2008C28.087 32.5102 27.3403 32.6648 26.487 32.6648C26.103 32.6648 25.719 32.6168 25.335 32.5208C24.951 32.4248 24.615 32.2968 24.327 32.1368C23.9323 31.9235 23.735 31.6355 23.735 31.2728C23.735 31.0168 23.8256 30.7822 24.007 30.5688C24.1883 30.3555 24.407 30.2488 24.663 30.2488C24.8763 30.2488 25.1056 30.3288 25.351 30.4888C25.8096 30.8408 26.3163 31.0168 26.871 31.0168C27.2016 31.0168 27.5163 30.9368 27.815 30.7768C28.1136 30.6062 28.3536 30.3662 28.535 30.0568C28.727 29.7368 28.823 29.3742 28.823 28.9688C28.823 28.3928 28.647 27.9448 28.295 27.6248C27.9536 27.3048 27.5376 27.1448 27.047 27.1448C26.8336 27.1448 26.647 27.1662 26.487 27.2088C26.327 27.2515 26.231 27.2782 26.199 27.2888C25.9216 27.3742 25.6923 27.4168 25.511 27.4168C25.2763 27.4168 25.0896 27.3368 24.951 27.1768C24.8123 27.0062 24.743 26.7982 24.743 26.5528C24.743 26.4035 24.7696 26.2702 24.823 26.1528C24.8763 26.0355 24.967 25.9075 25.095 25.7688L27.575 23.0648H24.407C24.151 23.0648 23.9376 22.9795 23.767 22.8088C23.5963 22.6382 23.511 22.4248 23.511 22.1688C23.511 21.9235 23.5963 21.7208 23.767 21.5608C23.9376 21.3902 24.151 21.3048 24.407 21.3048H29.303C29.623 21.3048 29.8683 21.3955 30.039 21.5768C30.2096 21.7475 30.295 21.9768 30.295 22.2648C30.295 22.5208 30.167 22.7768 29.911 23.0328L27.767 25.4008Z" fill="#ED7E31"/>
</g>
<defs>
<clipPath id="clip0">
<rect width="38.5134" height="38.5134" fill="white" transform="translate(7.41895 6.50484)"/>
</clipPath>
</defs>
</svg>
