<svg width="52" height="52" viewBox="0 0 52 52" fill="none" xmlns="http://www.w3.org/2000/svg">
<g opacity="0.2">
<path fill-rule="evenodd" clip-rule="evenodd" d="M25.6756 52.2653C39.8559 52.2653 51.3512 40.7699 51.3512 26.5897C51.3512 12.4094 39.8559 0.914062 25.6756 0.914062C11.4954 0.914062 0 12.4094 0 26.5897C0 40.7699 11.4954 52.2653 25.6756 52.2653Z" stroke="#F2B829"/>
</g>
<path d="M29.1216 31.573C29.3776 31.573 29.5909 31.6583 29.7616 31.829C29.9323 31.9996 30.0176 32.213 30.0176 32.469C30.0176 32.7143 29.9323 32.9223 29.7616 33.093C29.5909 33.253 29.3776 33.333 29.1216 33.333H23.6816C23.4043 33.333 23.1856 33.2476 23.0256 33.077C22.8656 32.9063 22.7856 32.6876 22.7856 32.421C22.7856 32.1543 22.8816 31.9196 23.0736 31.717L26.5616 27.989C26.9563 27.5623 27.2656 27.1356 27.4896 26.709C27.7243 26.2716 27.8416 25.8716 27.8416 25.509C27.8416 25.029 27.6709 24.613 27.3296 24.261C26.9883 23.909 26.5936 23.733 26.1456 23.733C25.8363 23.733 25.5216 23.8396 25.2016 24.053C24.8923 24.2556 24.6096 24.5276 24.3536 24.869C24.1616 25.125 23.9163 25.253 23.6176 25.253C23.3829 25.253 23.1643 25.1623 22.9616 24.981C22.7696 24.7996 22.6736 24.597 22.6736 24.373C22.6736 24.213 22.7269 24.053 22.8336 23.893C22.9403 23.7223 23.1003 23.5303 23.3136 23.317C23.7189 22.9116 24.1883 22.5863 24.7216 22.341C25.2549 22.0956 25.7669 21.973 26.2576 21.973C26.9616 21.973 27.5803 22.1223 28.1136 22.421C28.6469 22.7196 29.0576 23.1303 29.3456 23.653C29.6336 24.1756 29.7776 24.7676 29.7776 25.429C29.7776 26.0796 29.6016 26.7516 29.2496 27.445C28.9083 28.1276 28.4443 28.7836 27.8576 29.413L25.8256 31.573H29.1216Z" fill="#ED7E31"/>
</svg>
