<svg width="229" height="189" viewBox="0 0 229 189" fill="none" xmlns="http://www.w3.org/2000/svg">
<path fill-rule="evenodd" clip-rule="evenodd" d="M197.464 173.757C214.047 173.757 227.49 160.314 227.49 143.731C227.49 127.149 214.047 113.706 197.464 113.706C180.881 113.706 167.438 127.149 167.438 143.731C167.438 160.314 180.881 173.757 197.464 173.757Z" fill="#56E0E0" stroke="#56E0E0" stroke-width="2"/>
<g filter="url(#filter0_d)">
<path fill-rule="evenodd" clip-rule="evenodd" d="M143.378 157.849C186.757 157.849 221.922 122.595 221.922 79.1063C221.922 35.6176 186.757 0.363037 143.378 0.363037C99.999 0.363037 64.8335 35.6176 64.8335 79.1063C64.8335 122.595 99.999 157.849 143.378 157.849Z" fill="#FCFBFF"/>
</g>
<mask id="mask0" mask-type="alpha" maskUnits="userSpaceOnUse" x="63" y="-1" width="160" height="160">
<path fill-rule="evenodd" clip-rule="evenodd" d="M143.378 157.849C186.757 157.849 221.922 122.595 221.922 79.1063C221.922 35.6176 186.757 0.363037 143.378 0.363037C99.999 0.363037 64.8335 35.6176 64.8335 79.1063C64.8335 122.595 99.999 157.849 143.378 157.849Z" fill="white" stroke="white" stroke-width="2"/>
</mask>
<g mask="url(#mask0)">
<g clip-path="url(#clip0)">
<path fill-rule="evenodd" clip-rule="evenodd" d="M84.7979 51.3154H157.665V157.322H84.7979V51.3154Z" fill="#979797"/>
<path fill-rule="evenodd" clip-rule="evenodd" d="M84.7979 94.2664H47.9089V157.322H84.7979V94.2664Z" fill="#979797"/>
<path fill-rule="evenodd" clip-rule="evenodd" d="M184.99 51.3154H157.665V157.322H184.99V51.3154Z" fill="#979797"/>
<path fill-rule="evenodd" clip-rule="evenodd" d="M194.554 94.2664H157.665V157.322H194.554V94.2664Z" fill="#979797"/>
<rect x="164.951" y="100.663" width="4.55419" height="9.13853" fill="#979797"/>
<rect x="174.06" y="100.663" width="4.55418" height="9.13853" fill="#979797"/>
<rect x="183.168" y="100.663" width="4.55417" height="9.13853" fill="#979797"/>
<rect x="164.951" y="114.371" width="4.55419" height="9.13853" fill="#979797"/>
<rect x="174.06" y="114.371" width="4.55418" height="9.13853" fill="#979797"/>
<rect x="183.168" y="114.371" width="4.55417" height="9.13853" fill="#979797"/>
<rect x="164.951" y="128.079" width="4.55419" height="9.13854" fill="#979797"/>
<rect x="174.06" y="128.079" width="4.55418" height="9.13854" fill="#979797"/>
<rect x="183.168" y="128.079" width="4.55417" height="9.13854" fill="#979797"/>
<rect x="164.951" y="141.787" width="4.55419" height="9.13854" fill="#979797"/>
<rect x="174.06" y="141.787" width="4.55418" height="9.13854" fill="#979797"/>
<rect x="183.168" y="141.787" width="4.55417" height="9.13854" fill="#979797"/>
<path fill-rule="evenodd" clip-rule="evenodd" d="M194.554 94.2664H223.245V157.322H194.554V94.2664Z" fill="#979797"/>
<path d="M157.665 51.3154V157.322" stroke="#D8D8D8"/>
<rect x="197.742" y="100.663" width="4.5542" height="9.13853" fill="#979797"/>
<rect x="206.85" y="100.663" width="4.55421" height="9.13853" fill="#979797"/>
<rect x="215.958" y="100.663" width="4.5542" height="9.13853" fill="#979797"/>
<rect x="197.742" y="114.371" width="4.5542" height="9.13853" fill="#979797"/>
<rect x="206.85" y="114.371" width="4.55421" height="9.13853" fill="#979797"/>
<rect x="215.958" y="114.371" width="4.5542" height="9.13853" fill="#979797"/>
<rect x="197.742" y="128.079" width="4.5542" height="9.13854" fill="#979797"/>
<rect x="206.85" y="128.079" width="4.55421" height="9.13854" fill="#979797"/>
<rect x="215.958" y="128.079" width="4.5542" height="9.13854" fill="#979797"/>
<rect x="197.742" y="141.787" width="4.5542" height="9.13854" fill="#979797"/>
<rect x="206.85" y="141.787" width="4.55421" height="9.13854" fill="#979797"/>
<rect x="215.958" y="141.787" width="4.5542" height="9.13854" fill="#979797"/>
<path d="M171.327 51.3154V94.2665" stroke="#D8D8D8"/>
<path d="M184.99 51.3154V94.2665" stroke="#D8D8D8"/>
<path d="M139.448 51.3154V157.322" stroke="#D8D8D8"/>
<path d="M103.014 51.3154V157.322" stroke="#D8D8D8"/>
<path d="M84.7979 149.098H157.901" stroke="white"/>
<path fill-rule="evenodd" clip-rule="evenodd" d="M111.667 137.675H130.795V157.322H111.667V137.675Z" fill="#979797"/>
<path fill-rule="evenodd" clip-rule="evenodd" d="M84.7979 51.3154H157.665V66.8509H84.7979V51.3154Z" fill="#D8D8D8"/>
<path d="M121.231 51.3154V157.322" stroke="#D8D8D8"/>
<path d="M84.7979 75.9894H184.99" stroke="white"/>
<path d="M84.7979 94.2664H184.99" stroke="white"/>
<path d="M84.7979 112.544H157.901" stroke="white"/>
<path fill-rule="evenodd" clip-rule="evenodd" d="M102.104 63.1955C104.619 63.1955 106.658 61.1498 106.658 58.6263C106.658 56.1027 104.619 54.057 102.104 54.057C99.5883 54.057 97.5493 56.1027 97.5493 58.6263C97.5493 61.1498 99.5883 63.1955 102.104 63.1955Z" fill="#979797"/>
<path d="M84.7979 130.821H157.901" stroke="white"/>
<rect x="64.3037" y="100.663" width="4.5542" height="9.13853" fill="#979797"/>
<rect x="73.4121" y="100.663" width="4.5542" height="9.13853" fill="#979797"/>
<rect x="64.3037" y="114.371" width="4.5542" height="9.13853" fill="#979797"/>
<rect x="73.4121" y="114.371" width="4.5542" height="9.13853" fill="#979797"/>
<rect x="64.3037" y="128.079" width="4.5542" height="9.13854" fill="#979797"/>
<rect x="73.4121" y="128.079" width="4.5542" height="9.13854" fill="#979797"/>
<rect x="64.3037" y="141.787" width="4.5542" height="9.13854" fill="#979797"/>
<rect x="73.4121" y="141.787" width="4.5542" height="9.13854" fill="#979797"/>
</g>
<path fill-rule="evenodd" clip-rule="evenodd" d="M99.691 91.1439L95.6569 80.2685C95.6569 80.2685 97.0371 75.4037 96.347 71.3813C95.6569 67.359 98.5265 64.291 98.5265 64.291C98.5265 64.291 95.1945 63.1106 93.874 65.9552C92.5535 68.7998 91.5925 70.5254 91.5925 70.5254C91.5925 70.5254 89.635 67.0107 89.0545 65.4441C86.724 59.1554 85.8861 55.9237 85.2662 56.21C84.1048 56.7465 85.2662 64.291 85.2662 64.291C85.2662 64.291 84.2469 62.5245 83.8464 61.6885C81.343 56.4624 80.2263 54.9496 79.5835 55.3024C78.4649 55.9162 82.0516 65.4441 81.4926 65.4441C80.9336 65.4441 77.5721 57.9133 76.6358 58.452C75.6994 58.9907 79.0505 68.0371 79.0505 68.0371C79.0505 68.0371 76.1657 62.841 75.267 63.2349C74.3682 63.6288 77.0722 69.489 77.7667 71.4619C78.4612 73.4348 79.2467 79.7706 84.5358 84.7615L87.1815 95.2031L99.691 91.1439Z" fill="#FBBEBE"/>
<path fill-rule="evenodd" clip-rule="evenodd" d="M156.075 52.7818C156.075 52.7818 154.166 42.5137 156.075 41.0471C156.075 41.0471 161.646 30.5578 172.866 32.4931C184.085 34.4285 188.855 40.0286 186.723 52.4073C184.59 64.7861 158.723 58.3612 158.723 58.3612L156.075 52.7818Z" fill="#062721"/>
<path fill-rule="evenodd" clip-rule="evenodd" d="M204.897 160.77C204.897 160.77 223.201 161.815 225.525 154.086C227.849 146.358 220.812 114.835 214.122 97.5803C207.432 80.3257 182.097 76.1057 182.097 76.1057L161.577 77.0242C161.577 77.0242 136.086 82.6823 131.242 90.9333C126.397 99.1843 112.578 119.291 112.578 119.291L100.144 84.361L83.0229 90.9333C83.0229 90.9333 96.9266 151.588 108.245 153.337C119.564 155.086 137.494 134.18 137.494 134.18V201.439H204.897V160.77Z" fill="#F2B829"/>
<mask id="mask1" mask-type="alpha" maskUnits="userSpaceOnUse" x="83" y="76" width="143" height="126">
<path fill-rule="evenodd" clip-rule="evenodd" d="M204.897 160.77C204.897 160.77 223.201 161.815 225.525 154.086C227.849 146.358 220.812 114.835 214.122 97.5803C207.432 80.3257 182.097 76.1057 182.097 76.1057L161.577 77.0242C161.577 77.0242 136.086 82.6823 131.242 90.9333C126.397 99.1843 112.578 119.291 112.578 119.291L100.144 84.361L83.0229 90.9333C83.0229 90.9333 96.9266 151.588 108.245 153.337C119.564 155.086 137.494 134.18 137.494 134.18V201.439H204.897V160.77Z" fill="white"/>
</mask>
<g mask="url(#mask1)">
<path fill-rule="evenodd" clip-rule="evenodd" d="M160.02 76.7262L169.85 124.709L180.469 75.8077L160.02 76.7262Z" fill="white"/>
<path d="M160.02 76.7262L149.789 96.8691L159.565 99.5578L153.031 104.822L169.85 133.023" stroke="#062721" stroke-width="1.44"/>
<path d="M180.652 75.9305L190.884 96.0734L181.108 98.7621L187.642 104.026L170.843 133.023" stroke="#062721" stroke-width="1.44"/>
<path d="M188.669 92.0162C188.669 92.0162 188.138 83.0687 185.163 76.1058" stroke="white" stroke-width="4.8"/>
<path d="M157.542 76.7262C157.542 76.7262 148.287 79.4356 148.287 97.2574C148.287 115.079 148.287 119.262 148.287 119.262" stroke="white" stroke-width="4.8"/>
<path fill-rule="evenodd" clip-rule="evenodd" d="M148.107 123.053C150.299 123.053 152.076 121.272 152.076 119.075C152.076 116.877 150.299 115.096 148.107 115.096C145.915 115.096 144.139 116.877 144.139 119.075C144.139 121.272 145.915 123.053 148.107 123.053Z" fill="white"/>
</g>
<rect x="158.822" y="120.268" width="27.3157" height="39.3494" fill="#F9F8F8"/>
<path d="M163.188 125.292H182.188" stroke="#062721" stroke-width="1.5972"/>
<path d="M163.188 130.464H177.222" stroke="#062721" stroke-width="1.5972"/>
<path d="M163.188 135.238H182.188" stroke="#062721" stroke-width="1.5972"/>
<path d="M163.188 140.41H177.222" stroke="#062721" stroke-width="1.5972"/>
<path fill-rule="evenodd" clip-rule="evenodd" d="M186.205 143.962L178.805 138.903L173.955 137.658C173.955 137.658 172.317 137.094 172.181 137.658C172.045 138.222 172.967 139.657 173.374 140.067C173.78 140.477 177.538 141.964 177.538 141.964L171.276 140.795L165.687 138.058C165.687 138.058 164.315 137.55 164.041 138.234C163.767 138.918 164.759 139.79 164.759 139.79L169.753 142.91C169.753 142.91 167.807 142.558 167.62 142.636C167.433 142.714 166.998 142.921 166.906 143.656C166.815 144.391 167.409 145.245 167.409 145.245L167.674 145.468C167.674 145.468 167.065 146.003 166.986 146.706C166.906 147.41 167.409 147.882 167.409 147.882L167.556 148.043C167.556 148.043 167.074 148.612 167.074 149.223C167.074 149.834 167.409 150.208 167.409 150.208L173.606 153.809C173.606 153.809 180.831 154.838 186.205 154.299V143.962Z" fill="#FBBEBE"/>
<path d="M167.553 145.731L169.934 146.527" stroke="#062721" stroke-width="1.5972"/>
<path d="M167.553 148.118L170.331 149.312" stroke="#062721" stroke-width="1.5972"/>
<path d="M169.538 142.946L171.919 143.742" stroke="#062721" stroke-width="1.5972"/>
<path fill-rule="evenodd" clip-rule="evenodd" d="M160.47 63.4671C160.47 63.4671 162.177 71.2067 161.608 77.1241C161.608 77.1241 166.21 88.4114 172.14 88.4114C178.07 88.4114 182.128 76.2056 182.128 76.2056C182.128 76.2056 181.35 71.1774 182.575 65.9795C183.799 60.7816 160.47 63.4671 160.47 63.4671Z" fill="#FBBEBE"/>
<mask id="mask2" mask-type="alpha" maskUnits="userSpaceOnUse" x="160" y="62" width="23" height="27">
<path fill-rule="evenodd" clip-rule="evenodd" d="M160.47 63.4671C160.47 63.4671 162.177 71.2067 161.608 77.1241C161.608 77.1241 166.21 88.4114 172.14 88.4114C178.07 88.4114 182.128 76.2055 182.128 76.2055C182.128 76.2055 181.35 71.1773 182.575 65.9795C183.799 60.7816 160.47 63.4671 160.47 63.4671Z" fill="white"/>
</mask>
<g mask="url(#mask2)">
<path fill-rule="evenodd" clip-rule="evenodd" d="M182.057 67.8685C182.057 67.8685 177.484 78.4166 166.714 78.4166C166.714 78.4166 161.91 79.0988 168.148 87.9161L158.937 78.1811L160.47 65.1929L182.057 67.8685Z" fill="#DF8D70"/>
</g>
<path fill-rule="evenodd" clip-rule="evenodd" d="M185.84 60.7816C186.549 60.3925 187.388 58.8948 187.756 55.8787C188.124 52.8626 186.875 52.3066 186.122 52.5579C185.369 52.8092 183.691 56.4222 183.691 56.4222L183.799 51.1496C181.153 48.3319 181.023 44.2278 181.023 44.2278C173.04 46.895 163.589 41.6974 163.589 41.6974C162.716 43.225 161.986 44.3116 161.244 45.2245C160.414 46.2458 158.958 47.4079 158.958 47.4079L159.209 56.4373L156.872 52.5579C153.787 52.5579 156.058 58.6344 156.872 60.1484C157.686 61.6624 159.608 60.7816 159.608 60.7816C159.608 60.7816 162.661 74.8923 171.169 75.5228C179.677 76.1533 183.799 64.8036 183.799 60.7816C183.799 60.7816 185.132 61.1708 185.84 60.7816Z" fill="#FBBEBE"/>
<path d="M83 75.0286C85.1857 72.0649 91.7901 70.3536 91.7901 70.3536C91.7901 70.3536 86.3152 74.6301 88.7751 79.7037" stroke="#062721" stroke-width="1.44"/>
<path d="M84.7744 60.0176C84.7744 60.0176 85.4257 65.3966 85.8525 66.6927" stroke="#062721" stroke-width="1.44"/>
<path d="M80.8145 62.1249L82.1487 67.0748" stroke="#062721" stroke-width="1.44"/>
<path d="M77.9224 64.9644L79.3014 68.7106" stroke="#062721" stroke-width="1.44"/>
<path d="M78.6118 69.5178C79.3013 69.5178 80.444 65.8607 87.3887 66.8375" stroke="#062721" stroke-width="1.44"/>
<path d="M137.469 120.6V164.874" stroke="#062721" stroke-width="1.44"/>
<path d="M83.0537 91.0331L100.175 84.4608L112.609 119.391V128.029" stroke="#062721" stroke-width="1.44"/>
<path fill-rule="evenodd" clip-rule="evenodd" d="M172.049 68.2385C169.658 68.2385 167.894 66.0164 167.894 66.0164L176.205 66.0164C176.205 66.0164 174.44 68.2385 172.049 68.2385Z" fill="white"/>
<path d="M170.497 54.0298L169.878 62.2877C169.878 62.2877 171.688 63.7662 174.533 62.2877" stroke="#062721" stroke-width="1.44"/>
<path fill-rule="evenodd" clip-rule="evenodd" d="M166.314 56.1156C166.725 56.1156 167.059 55.7811 167.059 55.3684C167.059 54.9558 166.725 54.6213 166.314 54.6213C165.902 54.6213 165.569 54.9558 165.569 55.3684C165.569 55.7811 165.902 56.1156 166.314 56.1156Z" fill="#062721"/>
<path d="M200.203 124.962C200.203 124.962 182.446 125.828 183.051 97.7843C183.051 97.7843 183.428 94.9218 185.092 93.3276C186.756 91.7334 191.4 90.9901 193.766 94.6846C198.032 101.343 197.602 124.636 185.092 127.364" stroke="white" stroke-width="3.6"/>
<path fill-rule="evenodd" clip-rule="evenodd" d="M201.037 126.288C201.805 126.288 202.426 125.665 202.426 124.896C202.426 124.127 201.805 123.503 201.037 123.503C200.27 123.503 199.648 124.127 199.648 124.896C199.648 125.665 200.27 126.288 201.037 126.288Z" fill="#062721"/>
<path fill-rule="evenodd" clip-rule="evenodd" d="M185.163 128.675C185.931 128.675 186.552 128.052 186.552 127.283C186.552 126.514 185.931 125.89 185.163 125.89C184.396 125.89 183.774 126.514 183.774 127.283C183.774 128.052 184.396 128.675 185.163 128.675Z" fill="#062721"/>
<path fill-rule="evenodd" clip-rule="evenodd" d="M175.045 56.1156C175.456 56.1156 175.79 55.7811 175.79 55.3684C175.79 54.9558 175.456 54.6213 175.045 54.6213C174.633 54.6213 174.3 54.9558 174.3 55.3684C174.3 55.7811 174.633 56.1156 175.045 56.1156Z" fill="#062721"/>
<path fill-rule="evenodd" clip-rule="evenodd" d="M165.919 58.509C167.647 58.509 169.048 57.1044 169.048 55.3716C169.048 53.6389 167.647 52.2343 165.919 52.2343C164.192 52.2343 162.791 53.6389 162.791 55.3716C162.791 57.1044 164.192 58.509 165.919 58.509Z" stroke="white" stroke-width="1.5972" stroke-linecap="round"/>
<path fill-rule="evenodd" clip-rule="evenodd" d="M175.444 58.509C177.172 58.509 178.572 57.1044 178.572 55.3716C178.572 53.6389 177.172 52.2343 175.444 52.2343C173.716 52.2343 172.316 53.6389 172.316 55.3716C172.316 57.1044 173.716 58.509 175.444 58.509Z" stroke="white" stroke-width="1.5972" stroke-linecap="round"/>
<path d="M169.047 54.6214H172.315" stroke="white" stroke-width="1.2"/>
<path d="M178.572 54.6213L185.257 52.7786" stroke="white" stroke-width="1.2"/>
<path d="M162.791 54.6214L157.542 52.2343" stroke="white" stroke-width="1.2"/>
<path d="M163.339 51.7982C163.339 51.7982 165.693 50.3275 168.153 51.6233" stroke="#062721" stroke-width="1.2"/>
<path d="M173.261 51.7982C173.261 51.7982 175.614 50.3275 178.075 51.6233" stroke="#062721" stroke-width="1.2"/>
<path d="M219.735 148.715C218.349 144.328 214.375 143.742 214.375 143.742L186.206 142.946V156.629C186.206 156.629 204.584 162.567 218.756 159.592" stroke="#062721" stroke-width="1.44"/>
<path d="M202.97 111.747L204.315 143.742" stroke="#062721" stroke-width="1.44"/>
</g>
<g filter="url(#filter1_d)">
<path fill-rule="evenodd" clip-rule="evenodd" d="M4.19843 150.141L13.1273 159.878L21.3608 151.228C21.3608 151.228 29.23 148.363 32.6288 145.934C36.0277 143.505 38.921 143.866 41.1322 142.939C43.3434 142.012 43.8855 140.011 41.4896 139.275C41.4896 139.275 44.903 137.885 44.2906 135C44.2906 135 46.9817 131.279 43.3989 130.179C43.3989 130.179 53.4745 124.581 52.9504 122.338C52.4262 120.095 41.0364 126.837 36.3137 127.527C31.591 128.216 29.3218 128.615 24.9014 126.815C24.9014 126.815 24.996 125.694 25.5232 124.941C26.0503 124.187 30.1048 120.504 27.366 116.568C27.366 116.568 26.4639 115.692 25.7206 116.899C24.9774 118.107 22.5184 123.332 19.4094 125.834C16.3004 128.335 14.0598 139.793 12.8594 141.684C11.659 143.576 4.19843 150.141 4.19843 150.141Z" fill="#A1616A"/>
<path d="M41.4899 139.275C41.4899 139.275 40.9282 139.282 40.4928 139.605" stroke="#062721"/>
<path d="M44.2909 135L41.8347 135.199" stroke="#062721"/>
<path d="M26.0089 124.364C26.0089 124.364 24.999 125.669 24.089 128.657C23.179 131.645 23.5101 133.523 21.6568 137.469" stroke="#062721"/>
<rect width="18.2959" height="36.9613" rx="6" transform="matrix(0.955985 0.293416 -0.291331 0.956622 31.6025 105.911)" fill="#1C154A"/>
<rect width="16.2049" height="29.6215" rx="5.28" transform="matrix(0.955985 0.293416 -0.291331 0.956622 31.7617 108.976)" fill="#12B2B3"/>
<mask id="mask3" mask-type="alpha" maskUnits="userSpaceOnUse" x="24" y="110" width="22" height="31">
<rect width="16.2049" height="29.6215" rx="5.28" transform="matrix(0.955985 0.293416 -0.291331 0.956622 31.7617 108.976)" fill="white"/>
</mask>
<g mask="url(#mask3)">
<path opacity="0.3" fill-rule="evenodd" clip-rule="evenodd" d="M47.2534 113.731L22.6732 138.82L31.7617 108.976L47.2534 113.731Z" fill="white"/>
</g>
<path fill-rule="evenodd" clip-rule="evenodd" d="M30.0865 142.738C30.7075 142.928 31.3648 142.578 31.5545 141.954C31.7443 141.331 31.3948 140.671 30.7738 140.481C30.1528 140.29 29.4956 140.641 29.3058 141.264C29.116 141.887 29.4655 142.547 30.0865 142.738Z" fill="#56E0E0"/>
<path d="M39.3515 110.072L41.8975 110.853" stroke="#56E0E0"/>
<path fill-rule="evenodd" clip-rule="evenodd" d="M38.3625 110.18C38.5695 110.243 38.7886 110.126 38.8518 109.918C38.9151 109.711 38.7986 109.491 38.5916 109.427C38.3846 109.364 38.1655 109.481 38.1022 109.688C38.039 109.896 38.1555 110.116 38.3625 110.18Z" fill="#56E0E0"/>
<path fill-rule="evenodd" clip-rule="evenodd" d="M46.8241 151.254C46.8241 151.254 46.288 136.254 48.5929 132.765C50.8978 129.275 51.2185 138.552 51.4389 142.811C51.6592 147.07 52.2801 150.393 52.2801 150.393L53.3397 146.914L51.9352 147.383L51.5353 142.752C51.5353 142.752 57.1699 140.059 57.5903 141.641C58.0107 143.223 58.3274 144.391 58.3274 144.391C58.3274 144.391 61.8515 144.078 61.4479 148.58C61.4479 148.58 64.4228 150.432 63.495 154.142C62.5673 157.852 61.2422 165.98 61.9581 168.074C62.674 170.168 64.128 176.473 64.128 176.473L54.0234 180.509C54.0234 180.509 49.9957 172.651 47.8298 170.586C45.6638 168.521 42.6236 164.503 42.7418 160.399C42.8599 156.296 43.6131 152.537 42.4914 150.76C42.4914 150.76 41.3013 149.259 41.8326 148.837C43.4745 147.532 46.8241 151.254 46.8241 151.254Z" fill="#A1616A"/>
<path d="M46.8242 151.253C46.8242 151.253 46.6543 156.988 46.4213 158.772" stroke="#062721"/>
<path d="M53.86 145.111L52.1776 150.636C52.1776 150.636 51.4983 143.842 51.4067 142.402" stroke="#062721"/>
<path d="M58.3442 144.397L56.2309 151.336" stroke="#062721"/>
<path d="M61.4482 148.58L59.9627 152.799" stroke="#062721"/>
</g>
<defs>
<filter id="filter0_d" x="60.8335" y="0.363037" width="165.089" height="165.486" filterUnits="userSpaceOnUse" color-interpolation-filters="sRGB">
<feFlood flood-opacity="0" result="BackgroundImageFix"/>
<feColorMatrix in="SourceAlpha" type="matrix" values="0 0 0 0 0 0 0 0 0 0 0 0 0 0 0 0 0 0 127 0"/>
<feOffset dy="4"/>
<feGaussianBlur stdDeviation="2"/>
<feColorMatrix type="matrix" values="0 0 0 0 0 0 0 0 0 0 0 0 0 0 0 0 0 0 0.25 0"/>
<feBlend mode="normal" in2="BackgroundImageFix" result="effect1_dropShadow"/>
<feBlend mode="normal" in="SourceGraphic" in2="effect1_dropShadow" result="shape"/>
</filter>
<filter id="filter1_d" x="0.198242" y="107.406" width="67.9296" height="81.1027" filterUnits="userSpaceOnUse" color-interpolation-filters="sRGB">
<feFlood flood-opacity="0" result="BackgroundImageFix"/>
<feColorMatrix in="SourceAlpha" type="matrix" values="0 0 0 0 0 0 0 0 0 0 0 0 0 0 0 0 0 0 127 0"/>
<feOffset dy="4"/>
<feGaussianBlur stdDeviation="2"/>
<feColorMatrix type="matrix" values="0 0 0 0 0 0 0 0 0 0 0 0 0 0 0 0 0 0 0.25 0"/>
<feBlend mode="normal" in2="BackgroundImageFix" result="effect1_dropShadow"/>
<feBlend mode="normal" in="SourceGraphic" in2="effect1_dropShadow" result="shape"/>
</filter>
<clipPath id="clip0">
<rect width="175.383" height="106.184" fill="white" transform="translate(47.9087 51.3154)"/>
</clipPath>
</defs>
</svg>
