<svg width="170" height="170" viewBox="0 0 170 170" fill="none" xmlns="http://www.w3.org/2000/svg">
<g filter="url(#filter0_d)">
<mask id="mask0" mask-type="alpha" maskUnits="userSpaceOnUse" x="10" y="6" width="150" height="150">
<circle cx="85" cy="81" r="75" fill="#C4C4C4"/>
</mask>
<g mask="url(#mask0)">
<path fill-rule="evenodd" clip-rule="evenodd" d="M25.5801 50.4978C25.5801 50.4978 34.9538 93.0061 31.8292 125.506C31.8292 125.506 57.1067 187.5 89.6762 187.5C122.246 187.5 144.531 120.461 144.531 120.461C144.531 120.461 140.259 92.8449 146.985 64.2964C153.711 35.748 25.5801 50.4978 25.5801 50.4978Z" fill="#FBBEBE"/>
<path fill-rule="evenodd" clip-rule="evenodd" d="M0.243209 -8.41173C0.243209 -8.41173 -10.2432 -64.8077 0.243209 -72.8627C0.243209 -72.8627 30.8382 -130.474 92.461 -119.844C154.084 -109.215 180.281 -78.457 168.568 -10.4687C156.856 57.5195 14.7867 22.2319 14.7867 22.2319L0.243209 -8.41173Z" fill="#062721"/>
<mask id="mask1" mask-type="alpha" maskUnits="userSpaceOnUse" x="23" y="44" width="123" height="142">
<path fill-rule="evenodd" clip-rule="evenodd" d="M23.3955 48.3132C23.3955 48.3132 32.7692 90.8215 29.6446 123.322C29.6446 123.322 54.9221 185.316 87.4916 185.316C120.061 185.316 142.346 118.277 142.346 118.277C142.346 118.277 138.075 90.6603 144.801 62.1118C151.527 33.5634 23.3955 48.3132 23.3955 48.3132Z" fill="white"/>
</mask>
<g mask="url(#mask1)">
<path fill-rule="evenodd" clip-rule="evenodd" d="M146.01 70.1205C146.01 70.1205 120.896 128.054 61.7414 128.054C61.7414 128.054 35.3562 131.801 69.6159 180.229L19.0269 126.761L27.447 55.4253L146.01 70.1205Z" fill="#DF8D70"/>
</g>
<path fill-rule="evenodd" clip-rule="evenodd" d="M163.725 35.5256C167.619 33.3882 172.226 25.1622 174.246 8.59704C176.265 -7.96815 169.407 -11.022 165.273 -9.64196C161.139 -8.26189 151.923 11.5821 151.923 11.5821L152.513 -17.3765C137.98 -32.8527 137.268 -55.3938 137.268 -55.3938C93.4194 -40.7444 41.5142 -69.2915 41.5142 -69.2915C36.7188 -60.9014 32.7103 -54.9332 28.6349 -49.9196C24.0751 -44.3101 16.0779 -37.9276 16.0779 -37.9276L17.4545 11.6648L4.62186 -9.64196C-12.3204 -9.64196 0.152452 23.7322 4.62186 32.0476C9.09126 40.3631 19.6469 35.5256 19.6469 35.5256C19.6469 35.5256 36.419 113.026 83.1454 116.489C129.872 119.952 152.513 57.6155 152.513 35.5256C152.513 35.5256 159.832 37.6631 163.725 35.5256Z" fill="#FBBEBE"/>
<path fill-rule="evenodd" clip-rule="evenodd" d="M87.9779 76.4816C74.8465 76.4816 65.1538 64.2766 65.1538 64.2766L110.802 64.2766C110.802 64.2766 101.109 76.4816 87.9779 76.4816Z" fill="white"/>
<path fill-rule="evenodd" clip-rule="evenodd" d="M56.4793 9.89826C58.7391 9.89826 60.571 8.06104 60.571 5.79471C60.571 3.52838 58.7391 1.69116 56.4793 1.69116C54.2196 1.69116 52.3877 3.52838 52.3877 5.79471C52.3877 8.06104 54.2196 9.89826 56.4793 9.89826Z" fill="#062721"/>
<path fill-rule="evenodd" clip-rule="evenodd" d="M104.431 9.89826C106.691 9.89826 108.523 8.06104 108.523 5.79471C108.523 3.52838 106.691 1.69116 104.431 1.69116C102.172 1.69116 100.34 3.52838 100.34 5.79471C100.34 8.06104 102.172 9.89826 104.431 9.89826Z" fill="#062721"/>
</g>
</g>
<defs>
<filter id="filter0_d" x="0" y="0" width="170" height="170" filterUnits="userSpaceOnUse" color-interpolation-filters="sRGB">
<feFlood flood-opacity="0" result="BackgroundImageFix"/>
<feColorMatrix in="SourceAlpha" type="matrix" values="0 0 0 0 0 0 0 0 0 0 0 0 0 0 0 0 0 0 127 0"/>
<feOffset dy="4"/>
<feGaussianBlur stdDeviation="5"/>
<feColorMatrix type="matrix" values="0 0 0 0 0 0 0 0 0 0 0 0 0 0 0 0 0 0 0.25 0"/>
<feBlend mode="normal" in2="BackgroundImageFix" result="effect1_dropShadow"/>
<feBlend mode="normal" in="SourceGraphic" in2="effect1_dropShadow" result="shape"/>
</filter>
</defs>
</svg>
