<svg width="150" height="150" viewBox="0 0 150 150" fill="none" xmlns="http://www.w3.org/2000/svg">
<path fill-rule="evenodd" clip-rule="evenodd" d="M75 150C116.421 150 150 116.421 150 75C150 33.5786 116.421 0 75 0C33.5786 0 0 33.5786 0 75C0 116.421 33.5786 150 75 150Z" fill="#FCFBFF"/>
<mask id="mask0" mask-type="alpha" maskUnits="userSpaceOnUse" x="0" y="0" width="150" height="150">
<path fill-rule="evenodd" clip-rule="evenodd" d="M75 150C116.421 150 150 116.421 150 75C150 33.5786 116.421 0 75 0C33.5786 0 0 33.5786 0 75C0 116.421 33.5786 150 75 150Z" fill="white"/>
</mask>
<g mask="url(#mask0)">
<path fill-rule="evenodd" clip-rule="evenodd" d="M-96.04 61.048C-96.04 61.048 -107.96 -3.05758 -96.04 -12.2137C-96.04 -12.2137 -61.2625 -77.7007 8.78439 -65.6179C78.8313 -53.5351 108.609 -18.5728 95.296 58.7098C81.9826 135.992 -79.5084 95.8808 -79.5084 95.8808L-96.04 61.048Z" fill="#062721"/>
<path fill-rule="evenodd" clip-rule="evenodd" d="M-68.6001 127.758C-68.6001 127.758 -57.945 176.077 -61.4967 213.021C-61.4967 213.021 -32.7636 283.489 4.25825 283.489C41.2801 283.489 66.6116 207.286 66.6116 207.286C66.6116 207.286 61.7562 175.894 69.4018 143.443C77.0474 110.992 -68.6001 127.758 -68.6001 127.758Z" fill="#FBBEBE"/>
<mask id="mask1" mask-type="alpha" maskUnits="userSpaceOnUse" x="-69" y="123" width="139" height="161">
<path fill-rule="evenodd" clip-rule="evenodd" d="M-68.6001 127.758C-68.6001 127.758 -57.945 176.077 -61.4967 213.021C-61.4967 213.021 -32.7636 283.489 4.25825 283.489C41.2801 283.489 66.6116 207.286 66.6116 207.286C66.6116 207.286 61.7562 175.894 69.4018 143.443C77.0474 110.992 -68.6001 127.758 -68.6001 127.758Z" fill="white"/>
</mask>
<g mask="url(#mask1)">
<path fill-rule="evenodd" clip-rule="evenodd" d="M66.1696 155.236C66.1696 155.236 37.6226 221.09 -29.6185 221.09C-29.6185 221.09 -59.6107 225.349 -20.6676 280.397L-78.1724 219.62L-68.6011 138.532L66.1696 155.236Z" fill="#DF8D70"/>
</g>
<path fill-rule="evenodd" clip-rule="evenodd" d="M89.7914 110.992C94.2168 108.562 99.4537 99.2116 101.75 80.3819C104.046 61.5522 96.2496 58.0808 91.5505 59.6495C86.8513 61.2183 76.3754 83.775 76.3754 83.775L77.0465 50.8576C60.526 33.2658 59.7172 7.64323 59.7172 7.64323C9.87425 24.2952 -49.1267 -8.15442 -49.1267 -8.15442C-54.5776 1.3826 -59.1341 8.16673 -63.7667 13.8658C-68.9498 20.2421 -78.0402 27.4971 -78.0402 27.4971L-76.4755 83.869L-91.0624 59.6495C-110.321 59.6495 -96.1428 97.5861 -91.0624 107.038C-85.982 116.49 -73.9834 110.992 -73.9834 110.992C-73.9834 110.992 -54.9184 199.087 -1.80421 203.023C51.3099 206.96 77.0465 136.101 77.0465 110.992C77.0465 110.992 85.3659 113.421 89.7914 110.992Z" fill="#FBBEBE"/>
<path fill-rule="evenodd" clip-rule="evenodd" d="M3.68837 157.547C-11.2382 157.547 -22.2559 143.673 -22.2559 143.673L29.6326 143.673C29.6326 143.673 18.6149 157.547 3.68837 157.547Z" fill="white"/>
<path fill-rule="evenodd" clip-rule="evenodd" d="M22.3922 81.8612C24.9609 81.8612 27.0432 79.7728 27.0432 77.1966C27.0432 74.6205 24.9609 72.5321 22.3922 72.5321C19.8235 72.5321 17.7412 74.6205 17.7412 77.1966C17.7412 79.7728 19.8235 81.8612 22.3922 81.8612Z" fill="#062721"/>
</g>
</svg>
