<svg width="250" height="244" viewBox="0 0 250 244" fill="none" xmlns="http://www.w3.org/2000/svg">
<path d="M176.523 140.796C178.145 142.373 179.432 144.245 180.31 146.306C181.188 148.366 181.64 150.575 181.64 152.805C181.64 155.036 181.188 157.244 180.31 159.305C179.432 161.366 178.145 163.238 176.523 164.815L147.929 193.025L131.347 176.703C126.58 172.009 123.903 165.68 123.895 159.083C123.887 152.487 126.548 146.152 131.303 141.447C146.749 136.477 161.247 129.067 174.214 119.513L174.228 119.532C172.047 122.795 171.085 126.688 171.503 130.559C171.921 134.43 173.693 138.044 176.523 140.796Z" fill="#475673"/>
<path d="M93.7305 60.2952C96.5602 63.0473 100.277 64.7703 104.257 65.1757C108.238 65.5811 112.241 64.6441 115.596 62.5218C105.613 75.2241 97.8696 89.4501 92.6807 104.619C87.8125 109.086 81.3512 111.54 74.6584 111.466C67.9655 111.391 61.5637 108.794 56.8018 104.22L40.0098 88.0974L69.0283 60.2952C70.6501 58.7178 72.5756 57.4665 74.6948 56.6128C76.8141 55.7591 79.0855 55.3197 81.3794 55.3197C83.6733 55.3197 85.9447 55.7591 88.064 56.6128C90.1832 57.4665 92.1087 58.7178 93.7305 60.2952Z" fill="#475673"/>
<path d="M233.193 5.22243C233.199 16.2842 231.904 27.3104 229.331 38.0857L229.165 38.0477C216.142 31.9976 205.626 21.8173 199.346 9.18197L199.272 9.03479C210.39 6.49633 221.773 5.21704 233.193 5.22243Z" fill="#ED6337"/>
<path d="M101.577 124.284L89.3066 112.353C90.0293 109.747 90.8285 107.169 91.7041 104.619C96.893 89.4501 104.637 75.2241 114.619 62.5218H114.624C135.626 35.7076 165.542 16.8047 199.272 9.03479L199.346 9.18197C205.626 21.8173 216.142 31.9976 229.165 38.0477L229.331 38.0857C224.446 58.4538 215.055 77.5423 201.812 94.0224C193.834 103.965 184.557 112.853 174.214 120.462C161.247 130.016 146.749 137.427 131.304 142.396C128.491 143.303 125.64 144.128 122.749 144.87L111.479 133.912L101.577 124.284Z" fill="#E5F5FD"/>
<path d="M111.479 133.912L105.244 158.434L75.625 129.63L101.577 124.284L111.479 133.912Z" fill="#ED6337"/>
<path d="M89.7168 155.3C89.7201 157.829 88.7707 160.272 87.0478 162.167C85.325 164.061 82.9481 165.277 80.3662 165.584L66.7969 167.222L68.4766 154.023C68.8106 151.405 70.159 149.009 72.2471 147.323C74.3351 145.638 77.0056 144.79 79.7141 144.953C82.4227 145.116 84.9654 146.277 86.824 148.2C88.6826 150.122 89.7172 152.662 89.7168 155.3Z" fill="#FADF4A"/>
<path d="M164.426 90.0662C174.638 90.0662 182.916 82.0172 182.916 72.0883C182.916 62.1593 174.638 54.1104 164.426 54.1104C154.215 54.1104 145.937 62.1593 145.937 72.0883C145.937 82.0172 154.215 90.0662 164.426 90.0662Z" fill="#50A6EA"/>
<path d="M199.346 9.18197L199.272 9.03479C165.542 16.8047 135.626 35.7076 114.624 62.5218H114.619C104.637 75.2241 96.893 89.4501 91.7041 104.619C90.8301 107.169 90.0309 109.747 89.3066 112.353L99.0723 121.848C99.7949 119.242 100.594 116.664 101.47 114.114C106.659 98.9454 114.402 84.7194 124.385 72.0171H124.39C144.683 46.1151 173.313 27.5667 205.713 19.3305C203.26 16.1546 201.128 12.756 199.346 9.18197Z" fill="#A6B7D0"/>
<path d="M70.5566 188.975H65.9404C65.1634 188.975 64.4182 188.675 63.8688 188.141C63.3194 187.607 63.0107 186.882 63.0107 186.127C63.0107 185.371 63.3194 184.647 63.8688 184.113C64.4182 183.578 65.1634 183.278 65.9404 183.278H70.5566C72.1534 183.279 73.7447 183.097 75.2979 182.736C76.0535 182.56 76.8501 182.683 77.5123 183.078C78.1746 183.473 78.6484 184.108 78.8293 184.843C79.0103 185.578 78.8837 186.352 78.4774 186.996C78.071 187.64 77.4182 188.101 76.6626 188.277C74.6625 188.741 72.6131 188.976 70.5566 188.975Z" fill="#F9D438"/>
<path d="M55.3649 188.974H47.3635C46.6856 188.974 46.0287 188.746 45.5047 188.328C44.9807 187.91 44.6221 187.328 44.4899 186.681C43.4234 179.654 45.22 172.5 49.4972 166.741L47.2878 166.687C46.5237 166.668 45.7975 166.359 45.264 165.827C44.7305 165.295 44.4321 164.581 44.4323 163.838C44.4273 160.435 45.12 157.065 46.4701 153.926C47.8201 150.786 49.8004 147.94 52.2951 145.553C54.7114 143.188 57.5897 141.316 60.7607 140.048C63.9317 138.78 67.3314 138.141 70.7599 138.169C71.7965 138.177 72.8317 138.244 73.86 138.371C74.6818 138.471 75.5324 138.617 76.381 138.803C81.1909 139.876 85.5905 142.25 89.0719 145.651C92.5532 149.051 94.9744 153.34 96.0558 158.022C96.2385 158.821 96.381 159.629 96.4787 160.423C96.9741 164.261 96.5604 168.159 95.2693 171.818C93.9781 175.477 91.8436 178.8 89.029 181.534C88.7583 181.805 88.4351 182.02 88.0781 182.168C87.721 182.316 87.3374 182.394 86.9493 182.396C86.5612 182.399 86.1765 182.326 85.8175 182.183C85.4584 182.04 85.1323 181.829 84.8579 181.562C84.5835 181.295 84.3663 180.978 84.2191 180.629C84.0718 180.279 83.9973 179.905 84 179.528C84.0026 179.151 84.0824 178.778 84.2345 178.431C84.3867 178.083 84.6083 177.769 84.8864 177.506C86.774 175.68 88.2705 173.508 89.2894 171.117C90.3083 168.725 90.8294 166.16 90.8224 163.571C90.8217 162.752 90.7687 161.934 90.6637 161.121C90.5863 160.494 90.4772 159.874 90.3366 159.261C89.4966 155.632 87.619 152.307 84.9203 149.671C82.2215 147.034 78.8115 145.193 75.0832 144.359C74.4264 144.216 73.7648 144.101 73.1252 144.023C72.3267 143.924 71.5229 143.872 70.718 143.867H70.5651C67.9361 143.87 65.3336 144.378 62.907 145.362C60.4804 146.345 58.2775 147.785 56.4245 149.598C53.2018 152.682 51.1153 156.712 50.4885 161.066L56.0353 161.203C56.6241 161.217 57.1948 161.403 57.673 161.738C58.1511 162.072 58.5145 162.539 58.7157 163.077C58.917 163.615 58.9467 164.2 58.801 164.755C58.6553 165.31 58.341 165.809 57.8991 166.188C55.3708 168.295 53.3539 170.92 51.9933 173.875C50.6328 176.831 49.9625 180.042 50.0305 183.279H55.3674C56.1444 183.279 56.8895 183.579 57.439 184.114C57.9884 184.648 58.2971 185.372 58.2971 186.128C58.2971 186.883 57.9884 187.608 57.439 188.142C56.8895 188.676 56.1444 188.976 55.3674 188.976L55.3649 188.974Z" fill="#F9D438"/>
<path d="M193.193 123.873C192.59 123.873 192.002 123.692 191.508 123.356C191.015 123.019 190.64 122.542 190.435 121.99C190.231 121.439 190.206 120.84 190.365 120.274C190.524 119.708 190.858 119.204 191.323 118.83C193.33 117.214 195.322 115.521 197.241 113.798C197.523 113.54 197.855 113.339 198.217 113.206C198.58 113.073 198.965 113.012 199.352 113.025C199.739 113.038 200.12 113.126 200.472 113.283C200.824 113.44 201.14 113.664 201.403 113.94C201.665 114.217 201.869 114.541 202.001 114.895C202.134 115.249 202.194 115.625 202.176 116.001C202.159 116.377 202.065 116.746 201.899 117.086C201.734 117.427 201.502 117.732 201.214 117.985C199.218 119.776 197.148 121.536 195.062 123.217C194.537 123.641 193.876 123.874 193.193 123.873Z" fill="#CCD3DF"/>
<path d="M208.468 109.687C207.901 109.687 207.345 109.527 206.87 109.225C206.395 108.924 206.019 108.495 205.79 107.991C205.56 107.486 205.487 106.928 205.577 106.383C205.668 105.839 205.919 105.331 206.301 104.923C210.381 100.557 214.178 95.9496 217.672 91.1268C219.873 88.0883 221.975 84.924 223.922 81.7265C225.505 79.1252 227.02 76.4428 228.424 73.7542C232.28 66.3704 235.46 58.6707 237.927 50.7442C238.152 50.0211 238.663 49.4143 239.348 49.0575C240.033 48.7007 240.835 48.623 241.579 48.8416C242.323 49.0602 242.947 49.5571 243.314 50.2231C243.681 50.889 243.761 51.6694 243.536 52.3926C240.969 60.6398 237.661 68.6513 233.649 76.3341C232.187 79.1314 230.611 81.9221 228.964 84.6277C226.94 87.9511 224.753 91.2417 222.463 94.4046C218.83 99.4203 214.881 104.212 210.638 108.753C210.363 109.048 210.029 109.283 209.655 109.444C209.281 109.605 208.877 109.688 208.468 109.687Z" fill="#CCD3DF"/>
<path d="M10.2494 118.933C9.67003 118.933 9.10373 118.766 8.62206 118.453C8.14039 118.14 7.76498 117.695 7.54329 117.175C7.3216 116.654 7.26358 116.082 7.37657 115.529C7.48956 114.977 7.76849 114.469 8.17809 114.071L10.4242 111.889C10.9761 111.367 11.7173 111.077 12.4874 111.082C13.2575 111.087 13.9946 111.387 14.5391 111.917C15.0836 112.446 15.3918 113.163 15.397 113.912C15.4022 114.66 15.1039 115.381 14.5668 115.918L12.3231 118.099C12.0511 118.364 11.7278 118.574 11.3719 118.718C11.016 118.861 10.6345 118.934 10.2494 118.933Z" fill="#CCD3DF"/>
<path d="M18.8573 110.564C18.2778 110.564 17.7114 110.397 17.2296 110.084C16.7479 109.77 16.3724 109.326 16.1507 108.805C15.929 108.285 15.871 107.712 15.9841 107.159C16.0972 106.607 16.3762 106.099 16.786 105.701L26.8104 95.9537C27.0825 95.6892 27.4055 95.4794 27.7609 95.3363C28.1164 95.1931 28.4974 95.1195 28.8821 95.1195C29.2669 95.1195 29.6478 95.1932 30.0033 95.3364C30.3587 95.4796 30.6817 95.6894 30.9537 95.954C31.2258 96.2185 31.4415 96.5326 31.5888 96.8782C31.736 97.2238 31.8117 97.5942 31.8117 97.9683C31.8117 98.3424 31.7359 98.7129 31.5886 99.0585C31.4414 99.4041 31.2255 99.7181 30.9535 99.9826L20.9286 109.73C20.6568 109.994 20.334 110.204 19.9785 110.348C19.6231 110.491 19.242 110.564 18.8573 110.564Z" fill="#CCD3DF"/>
<path d="M14.6625 129.581C14.083 129.581 13.5165 129.414 13.0346 129.101C12.5528 128.788 12.1772 128.343 11.9555 127.822C11.7337 127.302 11.6757 126.729 11.7887 126.176C11.9018 125.624 12.1809 125.116 12.5907 124.718L24.3744 113.26C24.9238 112.726 25.669 112.426 26.446 112.426C27.223 112.426 27.9682 112.726 28.5177 113.26C29.0672 113.794 29.3759 114.519 29.3759 115.274C29.376 116.03 29.0673 116.754 28.5179 117.289L16.7342 128.747C16.4624 129.012 16.1395 129.222 15.7839 129.365C15.4284 129.508 15.0473 129.581 14.6625 129.581Z" fill="#CCD3DF"/>
<path d="M32.2074 112.519C31.628 112.519 31.0617 112.352 30.5801 112.039C30.0984 111.726 29.723 111.281 29.5013 110.761C29.2796 110.24 29.2216 109.668 29.3346 109.115C29.4476 108.563 29.7265 108.055 30.1361 107.657L34.4925 103.421C34.7638 103.153 35.087 102.94 35.4434 102.794C35.7998 102.648 36.1824 102.572 36.5691 102.57C36.9558 102.569 37.3391 102.642 37.6966 102.785C38.0542 102.928 38.3791 103.139 38.6525 103.405C38.926 103.671 39.1426 103.987 39.2898 104.334C39.437 104.682 39.512 105.055 39.5104 105.431C39.5087 105.807 39.4306 106.179 39.2803 106.525C39.1301 106.872 38.9108 107.186 38.6351 107.45L34.2772 111.687C34.0055 111.951 33.6828 112.161 33.3276 112.304C32.9724 112.446 32.5917 112.52 32.2074 112.519Z" fill="#CCD3DF"/>
<path d="M9.26842 149.763C8.68907 149.763 8.12277 149.596 7.6411 149.283C7.15943 148.97 6.78402 148.525 6.56233 148.005C6.34064 147.484 6.28262 146.911 6.39562 146.359C6.50861 145.806 6.78753 145.299 7.19713 144.901L20.2147 132.244C20.4859 131.976 20.8091 131.763 21.1655 131.617C21.5218 131.471 21.9044 131.395 22.2912 131.393C22.6779 131.392 23.0611 131.465 23.4187 131.608C23.7763 131.751 24.1012 131.962 24.3747 132.228C24.6482 132.494 24.8648 132.81 25.0121 133.157C25.1593 133.505 25.2343 133.878 25.2328 134.254C25.2312 134.63 25.1531 135.002 25.0029 135.348C24.8527 135.695 24.6335 136.009 24.3578 136.273L11.3402 148.929C11.0684 149.194 10.7455 149.404 10.3899 149.547C10.0344 149.69 9.65324 149.764 9.26842 149.763Z" fill="#CCD3DF"/>
<path d="M28.9955 130.583C28.4156 130.583 27.8487 130.416 27.3665 130.103C26.8843 129.79 26.5085 129.345 26.2867 128.824C26.065 128.303 26.0071 127.729 26.1206 127.177C26.2341 126.624 26.5137 126.116 26.9242 125.718L42.1737 110.89C42.4444 110.62 42.7676 110.404 43.1246 110.257C43.4816 110.109 43.8653 110.031 44.2534 110.029C44.6415 110.026 45.0262 110.099 45.3852 110.242C45.7442 110.385 46.0704 110.596 46.3448 110.863C46.6192 111.13 46.8364 111.447 46.9836 111.796C47.1309 112.145 47.2054 112.519 47.2027 112.897C47.2001 113.274 47.1203 113.647 46.9682 113.994C46.816 114.341 46.5944 114.656 46.3163 114.919L31.0668 129.748C30.795 130.013 30.4722 130.223 30.1167 130.366C29.7612 130.51 29.3802 130.583 28.9955 130.583Z" fill="#CCD3DF"/>
<path d="M103.781 209.875C103.202 209.876 102.635 209.709 102.153 209.396C101.672 209.083 101.296 208.638 101.074 208.117C100.852 207.597 100.794 207.024 100.907 206.472C101.02 205.919 101.299 205.411 101.709 205.013L103.952 202.832C104.503 202.305 105.246 202.011 106.019 202.014C106.791 202.017 107.532 202.316 108.078 202.848C108.625 203.379 108.933 204.099 108.937 204.85C108.94 205.602 108.638 206.324 108.096 206.86L105.852 209.044C105.58 209.308 105.258 209.518 104.902 209.66C104.547 209.803 104.166 209.876 103.781 209.875Z" fill="#CCD3DF"/>
<path d="M112.389 201.506C111.81 201.506 111.243 201.339 110.761 201.026C110.28 200.713 109.904 200.268 109.682 199.748C109.461 199.227 109.403 198.654 109.516 198.102C109.629 197.549 109.908 197.042 110.318 196.643L120.342 186.896C120.894 186.374 121.635 186.084 122.405 186.089C123.175 186.094 123.913 186.394 124.457 186.924C125.002 187.453 125.31 188.17 125.315 188.919C125.32 189.668 125.022 190.388 124.485 190.925L114.46 200.672C114.189 200.937 113.866 201.147 113.51 201.29C113.155 201.433 112.774 201.507 112.389 201.506Z" fill="#CCD3DF"/>
<path d="M108.194 220.523C107.614 220.523 107.048 220.356 106.566 220.043C106.085 219.73 105.709 219.285 105.488 218.764C105.266 218.244 105.208 217.671 105.321 217.119C105.434 216.566 105.713 216.059 106.122 215.66L117.907 204.203C118.177 203.933 118.501 203.717 118.858 203.569C119.215 203.421 119.598 203.344 119.986 203.341C120.374 203.339 120.759 203.411 121.118 203.554C121.477 203.698 121.803 203.909 122.078 204.176C122.352 204.443 122.569 204.76 122.717 205.109C122.864 205.458 122.938 205.832 122.936 206.209C122.933 206.587 122.853 206.96 122.701 207.307C122.549 207.654 122.327 207.968 122.049 208.231L110.265 219.689C109.993 219.954 109.67 220.164 109.315 220.307C108.959 220.45 108.578 220.523 108.194 220.523Z" fill="#CCD3DF"/>
<path d="M125.739 203.464C125.16 203.464 124.593 203.297 124.111 202.984C123.629 202.671 123.254 202.226 123.032 201.705C122.81 201.185 122.752 200.612 122.865 200.059C122.978 199.507 123.258 198.999 123.667 198.601L128.023 194.365C128.572 193.831 129.317 193.531 130.094 193.531C130.872 193.531 131.617 193.831 132.166 194.365C132.716 194.899 133.025 195.624 133.025 196.379C133.025 197.135 132.716 197.859 132.167 198.394L127.811 202.63C127.539 202.894 127.216 203.104 126.861 203.248C126.505 203.391 126.124 203.464 125.739 203.464Z" fill="#CCD3DF"/>
<path d="M102.8 240.706C102.221 240.706 101.654 240.539 101.173 240.226C100.691 239.913 100.315 239.468 100.094 238.947C99.8718 238.427 99.8139 237.854 99.9269 237.301C100.04 236.749 100.319 236.241 100.729 235.843L113.745 223.187C114.017 222.919 114.34 222.706 114.696 222.56C115.053 222.414 115.435 222.338 115.822 222.336C116.209 222.335 116.592 222.408 116.949 222.551C117.307 222.694 117.632 222.905 117.905 223.17C118.179 223.436 118.396 223.752 118.543 224.1C118.69 224.448 118.765 224.82 118.764 225.196C118.762 225.572 118.684 225.944 118.534 226.291C118.383 226.637 118.164 226.952 117.889 227.215L104.871 239.872C104.6 240.136 104.277 240.346 103.921 240.49C103.566 240.633 103.185 240.706 102.8 240.706Z" fill="#CCD3DF"/>
<path d="M122.527 221.525C121.948 221.525 121.381 221.358 120.899 221.045C120.418 220.732 120.042 220.287 119.82 219.767C119.598 219.246 119.54 218.673 119.653 218.121C119.767 217.568 120.046 217.061 120.455 216.662L135.705 201.834C135.977 201.566 136.3 201.353 136.656 201.207C137.013 201.061 137.395 200.985 137.782 200.984C138.169 200.982 138.552 201.055 138.91 201.199C139.267 201.342 139.592 201.552 139.865 201.818C140.139 202.084 140.355 202.4 140.503 202.748C140.65 203.096 140.725 203.468 140.723 203.844C140.722 204.22 140.643 204.592 140.493 204.939C140.343 205.285 140.124 205.599 139.848 205.863L124.598 220.691C124.327 220.956 124.004 221.166 123.649 221.309C123.293 221.452 122.912 221.526 122.527 221.525Z" fill="#CCD3DF"/>
<path d="M218.666 167.264C216.264 166.475 214.081 165.156 212.291 163.41C210.501 161.664 209.15 159.538 208.346 157.199C208.152 156.632 207.779 156.138 207.28 155.788C206.781 155.439 206.182 155.25 205.567 155.25C204.951 155.25 204.352 155.439 203.853 155.788C203.354 156.138 202.981 156.632 202.787 157.199C201.983 159.538 200.633 161.664 198.842 163.41C197.052 165.156 194.87 166.475 192.467 167.264C191.884 167.454 191.378 167.817 191.019 168.302C190.66 168.786 190.467 169.369 190.467 169.966C190.467 170.563 190.66 171.145 191.019 171.63C191.378 172.115 191.884 172.478 192.467 172.667C194.87 173.456 197.052 174.776 198.842 176.522C200.633 178.268 201.983 180.394 202.787 182.732C202.981 183.3 203.354 183.793 203.853 184.143C204.352 184.493 204.951 184.681 205.567 184.681C206.182 184.681 206.781 184.493 207.28 184.143C207.779 183.793 208.152 183.3 208.346 182.732C209.15 180.394 210.501 178.268 212.291 176.522C214.081 174.776 216.264 173.456 218.666 172.667C219.249 172.478 219.755 172.115 220.114 171.63C220.473 171.145 220.666 170.563 220.666 169.966C220.666 169.369 220.473 168.786 220.114 168.302C219.755 167.817 219.249 167.454 218.666 167.264Z" fill="#50A6EA"/>
<path d="M37.0256 52.8461C34.6229 52.0571 32.4409 50.7377 30.6504 48.9915C28.86 47.2453 27.5098 45.1196 26.7057 42.781C26.5115 42.2135 26.1385 41.7199 25.6395 41.3701C25.1406 41.0202 24.5411 40.832 23.9259 40.832C23.3108 40.832 22.7113 41.0202 22.2124 41.3701C21.7134 41.7199 21.3404 42.2135 21.1462 42.781C20.3421 45.1196 18.9919 47.2453 17.2015 48.9915C15.411 50.7377 13.229 52.0571 10.8263 52.8461C10.2437 53.0356 9.73716 53.3984 9.37823 53.8831C9.01929 54.3679 8.82617 54.9501 8.82617 55.5475C8.82617 56.1448 9.01929 56.727 9.37823 57.2118C9.73716 57.6966 10.2437 58.0594 10.8263 58.2489C13.229 59.0379 15.411 60.3572 17.2015 62.1034C18.9919 63.8497 20.3421 65.9754 21.1462 68.3139C21.3404 68.8814 21.7134 69.375 22.2124 69.7249C22.7113 70.0747 23.3108 70.263 23.9259 70.263C24.5411 70.263 25.1406 70.0747 25.6395 69.7249C26.1385 69.375 26.5115 68.8814 26.7057 68.3139C27.5098 65.9754 28.86 63.8497 30.6504 62.1034C32.4409 60.3572 34.6229 59.0379 37.0256 58.2489C37.6082 58.0594 38.1147 57.6966 38.4737 57.2118C38.8326 56.727 39.0257 56.1448 39.0257 55.5475C39.0257 54.9501 38.8326 54.3679 38.4737 53.8831C38.1147 53.3984 37.6082 53.0356 37.0256 52.8461Z" fill="#50A6EA"/>
<path d="M62.0303 30.8597C60.9677 30.8612 59.9285 30.5561 59.0443 29.9831C58.16 29.4101 57.4705 28.5949 57.0628 27.6408C56.6552 26.6867 56.5478 25.6364 56.7542 24.6229C56.9606 23.6093 57.4716 22.6781 58.2224 21.9471C58.9733 21.216 59.9303 20.7179 60.9724 20.5158C62.0145 20.3137 63.0948 20.4167 64.0767 20.8118C65.0586 21.2068 65.8978 21.8762 66.4883 22.7352C67.0789 23.5941 67.394 24.6041 67.394 25.6373C67.394 27.0212 66.8292 28.3484 65.8235 29.3276C64.8178 30.3068 63.4535 30.8579 62.0303 30.8597Z" fill="#D8FF33"/>
<path d="M196.308 216.493C195.245 216.494 194.206 216.189 193.322 215.616C192.437 215.043 191.748 214.228 191.34 213.274C190.933 212.32 190.825 211.269 191.032 210.256C191.238 209.242 191.749 208.311 192.5 207.58C193.251 206.849 194.208 206.351 195.25 206.149C196.292 205.947 197.372 206.05 198.354 206.445C199.336 206.84 200.175 207.509 200.766 208.368C201.356 209.227 201.671 210.237 201.671 211.27C201.671 212.654 201.107 213.981 200.101 214.961C199.095 215.94 197.731 216.491 196.308 216.493Z" fill="#D8FF33"/>
</svg>
