<svg width="36" height="36" viewBox="0 0 36 36" fill="none" xmlns="http://www.w3.org/2000/svg">
<rect x="1" y="1" width="34" height="34" rx="3" stroke="white" stroke-width="2"/>
<path d="M29 9.00005C28.0424 9.67552 26.9821 10.1922 25.86 10.53C25.2577 9.83756 24.4573 9.34674 23.567 9.12397C22.6767 8.90121 21.7395 8.95724 20.8821 9.2845C20.0247 9.61176 19.2884 10.1944 18.773 10.9538C18.2575 11.7131 17.9877 12.6124 18 13.53V14.53C16.2426 14.5756 14.5013 14.1859 12.931 13.3955C11.3607 12.6051 10.0103 11.4387 9 10C9 10 5 19 14 23C11.9405 24.398 9.48716 25.099 7 25C16 30 27 25 27 13.5C26.9991 13.2215 26.9723 12.9436 26.92 12.67C27.9406 11.6635 28.6608 10.3928 29 9.00005Z" fill="white" stroke="white" stroke-width="2" stroke-linecap="round" stroke-linejoin="round"/>
</svg>
