<svg width="60" height="35" viewBox="0 0 60 35" fill="none" xmlns="http://www.w3.org/2000/svg">
<path d="M59.4481 0.0399935C58.1415 5.54666 56.8348 11.4267 55.5281 17.68C54.3148 23.9333 53.3348 29.4867 52.5881 34.34H33.4081L32.4281 32.8C33.7348 27.8533 35.4615 22.44 37.6081 16.56C39.8481 10.68 42.1348 5.17333 44.4681 0.0399935H59.4481ZM27.5281 0.0399935C26.2215 5.54666 24.9148 11.4267 23.6081 17.68C22.3948 23.9333 21.4148 29.4867 20.6681 34.34H1.48813L0.508125 32.8C1.81479 27.8533 3.54146 22.44 5.68813 16.56C7.92813 10.68 10.2148 5.17333 12.5481 0.0399935H27.5281Z" fill="#ED7E31"/>
</svg>
