<svg width="124" height="125" viewBox="0 0 124 125" fill="none" xmlns="http://www.w3.org/2000/svg">
<path d="M102.216 60.7303H93.8376V27.495C93.8376 21.0285 88.576 15.7652 82.1078 15.7652H41.8916C35.4235 15.7652 30.1619 21.0285 30.1619 27.495V60.7303H21.7835C18.087 60.7303 15.0808 63.7365 15.0808 67.433V104.576C15.0808 107.348 17.3363 109.603 20.1078 109.603H31.8376H47.3476H77.6271H92.1619H103.892C106.663 109.603 108.919 107.348 108.919 104.576V67.433C108.919 63.7365 105.912 60.7303 102.216 60.7303Z" fill="#FFE8A4"/>
<path fill-rule="evenodd" clip-rule="evenodd" d="M80.4322 43.4138C80.4322 53.5768 72.1628 61.8463 61.9998 61.8463C51.8368 61.8463 43.5674 53.5768 43.5674 43.4138C43.5674 33.2509 51.8368 24.9814 61.9998 24.9814C72.1628 24.9814 80.4322 33.2509 80.4322 43.4138ZM77.081 43.4138C77.081 35.0975 70.3146 28.3328 61.9999 28.3328C53.6852 28.3328 46.9188 35.0975 46.9188 43.4138C46.9188 51.7302 53.6852 58.4949 61.9999 58.4949C70.3146 58.4949 77.081 51.7302 77.081 43.4138Z" fill="#ED7E31"/>
<path d="M56.9728 50.1165C57.8978 50.1165 58.6485 49.3675 58.6485 48.4409V45.0895H65.3512V48.4409C65.3512 49.3675 66.1019 50.1165 67.0268 50.1165C67.9518 50.1165 68.7025 49.3675 68.7025 48.4409V38.3868C68.7025 37.4602 67.9518 36.7111 67.0268 36.7111C66.1019 36.7111 65.3512 37.4602 65.3512 38.3868V41.7382H58.6485V38.3868C58.6485 37.4602 57.8978 36.7111 56.9728 36.7111C56.0478 36.7111 55.2971 37.4602 55.2971 38.3868V48.4409C55.2971 49.3675 56.0478 50.1165 56.9728 50.1165Z" fill="#ED7E31"/>
<path fill-rule="evenodd" clip-rule="evenodd" d="M93.8376 60.7303H102.216C105.912 60.7303 108.919 63.7365 108.919 67.433V104.576C108.919 107.348 106.663 109.603 103.892 109.603H92.1619H77.6271H47.3476H31.8376H20.1078C17.3363 109.603 15.0808 107.348 15.0808 104.576V67.433C15.0808 63.7365 18.087 60.7303 21.7835 60.7303H30.1619V27.495C30.1619 21.0285 35.4235 15.7652 41.8916 15.7652H82.1078C88.576 15.7652 93.8376 21.0285 93.8376 27.495V60.7303ZM33.5132 27.4949V62.406V106.252H45.6719V80.0207C45.6719 76.3241 48.6781 73.318 52.3746 73.318H72.6C76.2949 73.318 79.3027 76.3241 79.3027 80.0207V106.252H90.4862V62.406V27.4949C90.4862 22.8751 86.7276 19.1166 82.1078 19.1166H41.8916C37.2717 19.1166 33.5132 22.8751 33.5132 27.4949ZM49.0233 106.252V80.0207C49.0233 78.1724 50.5263 76.6693 52.3746 76.6693H72.6C74.4483 76.6693 75.9514 78.1724 75.9514 80.0207V106.252H49.0233ZM103.892 106.252H93.8376V93.8333H105.567V104.576C105.567 105.501 104.815 106.252 103.892 106.252ZM18.4322 104.576V93.8333H30.162V106.252H20.1079C19.1846 106.252 18.4322 105.501 18.4322 104.576ZM30.162 64.0816H21.7836C19.9353 64.0816 18.4322 65.5847 18.4322 67.433V75.3087H30.162V64.0816ZM18.4322 90.4819H30.162V78.66H18.4322V90.4819ZM105.567 90.4819H93.8376V78.66H105.567V90.4819ZM102.216 64.0816C104.064 64.0816 105.567 65.5847 105.567 67.433V75.3087H93.8376V64.0816H102.216Z" fill="#ED7E31"/>
</svg>
