<svg width="24" height="24" viewBox="0 0 24 24" fill="none" xmlns="http://www.w3.org/2000/svg">
<path d="M19.7073 23.5891C14.5743 24.137 9.42572 24.137 4.29272 23.5891C2.24597 23.3707 0.629333 21.754 0.410889 19.7071C-0.136963 14.5741 -0.136963 9.42572 0.410889 4.29272C0.629333 2.24597 2.24597 0.629333 4.29272 0.410889C9.42572 -0.136963 14.5741 -0.136963 19.7071 0.410889C21.754 0.629333 23.3707 2.24597 23.5891 4.29272C24.137 9.42572 24.137 14.5741 23.5891 19.7071C23.3707 21.754 21.7542 23.3707 19.7073 23.5891Z" fill="url(#paint0_linear)"/>
<path d="M22.2837 5.1608C22.09 3.34457 20.6555 1.90994 18.8391 1.71603C14.2842 1.23007 9.71573 1.23007 5.1608 1.71603C3.34457 1.90994 1.90994 3.34457 1.71603 5.1608C1.23007 9.71573 1.23007 14.2842 1.71603 18.839C1.90994 20.6554 3.34457 22.09 5.1608 22.2837C9.71573 22.7699 14.2842 22.7699 18.839 22.2837C20.6554 22.09 22.09 20.6554 22.2837 18.839C22.7699 14.2842 22.7699 9.71573 22.2837 5.1608V5.1608Z" fill="url(#paint1_linear)"/>
<path d="M0.359375 19.2096C0.375855 19.3755 0.392883 19.5414 0.410645 19.7073C0.629089 21.754 2.24573 23.3707 4.29266 23.5891C9.42566 24.137 14.574 24.137 19.707 23.5891C21.754 23.3707 23.3704 21.754 23.5889 19.7073C23.6066 19.5414 23.6237 19.3755 23.6403 19.2096H0.359375Z" fill="url(#paint2_linear)"/>
<path d="M23.3304 20.7924L7.84265 5.30438C7.49677 4.85303 6.95258 4.56171 6.34009 4.56171C5.29529 4.56171 4.44824 5.40857 4.44824 6.45337C4.44824 7.06604 4.73975 7.61023 5.1911 7.95593L20.6251 23.3901C21.8726 22.975 22.8668 22.0164 23.3304 20.7924V20.7924Z" fill="url(#paint3_linear)"/>
<path d="M7.92914 9.58612H4.75098V19.4383L9.2605 23.9478C12.7435 24.0797 16.2289 23.9604 19.7072 23.5891C20.3153 23.5243 20.8849 23.3351 21.3918 23.0488L7.92914 9.58612Z" fill="url(#paint4_linear)"/>
<path d="M18.7224 10.4114C18.1411 9.77399 17.3041 9.37408 16.3737 9.37408C14.9021 9.37408 13.9523 9.89099 13.3871 10.3709L12.7643 9.58612H9.83594V19.4383L14.359 23.9614C16.1428 23.9033 17.9259 23.7792 19.7073 23.5891C21.7543 23.3707 23.3707 21.754 23.5892 19.7073C23.7353 18.3387 23.842 16.9691 23.9102 15.5991L18.7224 10.4114Z" fill="url(#paint5_linear)"/>
<path d="M4.75098 9.58612H7.92896V19.4383H4.75098V9.58612Z" fill="white"/>
<path d="M16.3737 9.37408C14.0448 9.37408 13.0218 10.6685 12.7643 11.0625V9.58612H9.83594V19.4383H13.0141V14.4895C13.0141 13.0594 13.6724 11.9471 14.921 11.9471C16.1694 11.9471 16.3737 13.3317 16.3737 15.0344V19.4383H19.5519V12.5522C19.5519 10.797 18.129 9.37408 16.3737 9.37408V9.37408Z" fill="white"/>
<path d="M8.23175 6.45355C8.23175 7.49835 7.38489 8.34521 6.34009 8.34521C5.29529 8.34521 4.44824 7.49835 4.44824 6.45355C4.44824 5.40875 5.29529 4.56171 6.34009 4.56171C7.38489 4.56171 8.23175 5.40875 8.23175 6.45355Z" fill="white"/>
<defs>
<linearGradient id="paint0_linear" x1="7.96847" y1="3.37435" x2="14.0388" y2="16.3619" gradientUnits="userSpaceOnUse">
<stop stop-color="#0077B5"/>
<stop offset="1" stop-color="#0066B2"/>
</linearGradient>
<linearGradient id="paint1_linear" x1="17.0757" y1="14.7228" x2="-17.7931" y2="-3.98216" gradientUnits="userSpaceOnUse">
<stop stop-color="#0066B2" stop-opacity="0"/>
<stop offset="1" stop-color="#07485E"/>
</linearGradient>
<linearGradient id="paint2_linear" x1="11.9998" y1="19.4919" x2="11.9998" y2="24.5079" gradientUnits="userSpaceOnUse">
<stop stop-color="#0066B2" stop-opacity="0"/>
<stop offset="1" stop-color="#07485E"/>
</linearGradient>
<linearGradient id="paint3_linear" x1="12.7198" y1="12.8332" x2="3.74617" y2="3.8596" gradientUnits="userSpaceOnUse">
<stop stop-color="#0066B2" stop-opacity="0"/>
<stop offset="1" stop-color="#07485E"/>
</linearGradient>
<linearGradient id="paint4_linear" x1="17.9884" y1="21.1702" x2="-0.0822174" y2="12.6996" gradientUnits="userSpaceOnUse">
<stop stop-color="#0066B2" stop-opacity="0"/>
<stop offset="1" stop-color="#07485E"/>
</linearGradient>
<linearGradient id="paint5_linear" x1="22.3843" y1="23.0275" x2="9.79551" y2="10.4388" gradientUnits="userSpaceOnUse">
<stop stop-color="#0066B2" stop-opacity="0"/>
<stop offset="1" stop-color="#07485E"/>
</linearGradient>
</defs>
</svg>
