<svg width="42" height="42" viewBox="0 0 42 42" fill="none" xmlns="http://www.w3.org/2000/svg">
<g opacity="0.2">
<rect x="0.999023" y="1" width="40" height="40" rx="16" stroke="#12B2B3"/>
</g>
<path fill-rule="evenodd" clip-rule="evenodd" d="M20.999 31.5C15.2 31.5 10.499 26.799 10.499 21C10.499 15.201 15.2 10.5 20.999 10.5C26.798 10.5 31.499 15.201 31.499 21C31.499 26.799 26.798 31.5 20.999 31.5ZM16.999 15.4999C17.8275 15.4999 18.499 14.8284 18.499 13.9999C18.499 13.1715 17.8275 12.4999 16.999 12.4999C16.1706 12.4999 15.499 13.1715 15.499 13.9999C15.499 14.8284 16.1706 15.4999 16.999 15.4999ZM16.999 22.4999C18.3797 22.4999 19.499 21.3807 19.499 19.9999C19.499 18.6192 18.3797 17.4999 16.999 17.4999C15.6183 17.4999 14.499 18.6192 14.499 19.9999C14.499 21.3807 15.6183 22.4999 16.999 22.4999ZM24.499 18.4999C25.6036 18.4999 26.499 17.6045 26.499 16.4999C26.499 15.3953 25.6036 14.4999 24.499 14.4999C23.3945 14.4999 22.499 15.3953 22.499 16.4999C22.499 17.6045 23.3945 18.4999 24.499 18.4999ZM15.999 27.4999C16.8275 27.4999 17.499 26.8283 17.499 25.9999C17.499 25.1715 16.8275 24.4999 15.999 24.4999C15.1706 24.4999 14.499 25.1715 14.499 25.9999C14.499 26.8283 15.1706 27.4999 15.999 27.4999ZM22.499 27.5C23.6036 27.5 24.499 26.6046 24.499 25.5C24.499 24.3954 23.6036 23.5 22.499 23.5C21.3945 23.5 20.499 24.3954 20.499 25.5C20.499 26.6046 21.3945 27.5 22.499 27.5ZM27.499 23.5C28.0513 23.5 28.499 23.0523 28.499 22.5C28.499 21.9477 28.0513 21.5 27.499 21.5C26.9467 21.5 26.499 21.9477 26.499 22.5C26.499 23.0523 26.9467 23.5 27.499 23.5Z" fill="#12B2B3"/>
<path opacity="0.3" fill-rule="evenodd" clip-rule="evenodd" d="M16.999 21.5C16.1706 21.5 15.499 20.8284 15.499 20C15.499 19.1716 16.1706 18.5 16.999 18.5C17.8275 18.5 18.499 19.1716 18.499 20C18.499 20.8284 17.8275 21.5 16.999 21.5ZM24.499 17.5C23.9467 17.5 23.499 17.0523 23.499 16.5C23.499 15.9477 23.9467 15.5 24.499 15.5C25.0513 15.5 25.499 15.9477 25.499 16.5C25.499 17.0523 25.0513 17.5 24.499 17.5ZM22.499 26.4999C21.9467 26.4999 21.499 26.0522 21.499 25.4999C21.499 24.9476 21.9467 24.4999 22.499 24.4999C23.0513 24.4999 23.499 24.9476 23.499 25.4999C23.499 26.0522 23.0513 26.4999 22.499 26.4999Z" fill="#12B2B3"/>
</svg>
