<svg width="197" height="182" viewBox="0 0 197 182" fill="none" xmlns="http://www.w3.org/2000/svg">
<g filter="url(#filter0_d)">
<path d="M171.08 39.0589C171.033 39.0589 170.986 39.0657 170.939 39.066C169.729 28.0787 160.445 19.5294 149.161 19.5294C147.471 19.5294 145.833 19.7393 144.253 20.1023C137.599 8.11773 124.848 0 110.193 0C90.1344 0 73.6303 15.1967 71.4783 34.7276C69.8252 34.3726 68.1135 34.1763 66.3549 34.1763C52.9041 34.1766 42 45.1058 42 58.5883C42 72.0704 52.9041 83 66.3549 83H171.081C183.186 83 193 73.1633 193 61.0294C193 48.8953 183.186 39.0589 171.08 39.0589Z" fill="#EDEBED"/>
</g>
<path d="M90.6091 79.1998C77.186 79.1998 66.3044 68.2307 66.3044 54.6998C66.3044 49.3836 68.002 44.4772 70.8556 40.4619C69.3785 40.1774 67.8637 40 66.3044 40C52.8816 40 42 50.9688 42 64.5C42 78.0309 52.8816 89 66.3047 89H170.814C178.397 89 185.076 85.1079 189 79.2001H90.6091V79.1998Z" fill="#DBD9DC"/>
<path d="M129.125 74H99.875C97.1825 74 95 71.8172 95 69.125V39.875C95 37.1825 97.1828 35 99.875 35H129.125C131.818 35 134 37.1828 134 39.875V69.125C134 71.8172 131.818 74 129.125 74Z" fill="#B7B2B8"/>
<path d="M124.6 67H105.4C104.074 67 103 65.9256 103 64.6V45.4C103 44.0744 104.074 43 105.4 43H124.6C125.926 43 127 44.0744 127 45.4V64.6C127 65.9256 125.925 67 124.6 67Z" fill="#4BD7C8"/>
<path d="M122 48H108V62H122V48Z" fill="#99E9DF"/>
<path d="M7.67432 113.181H24.1331C24.9825 113.181 25.6712 112.492 25.6712 111.643C25.6712 110.794 24.9825 110.105 24.1331 110.105H7.67432C6.82488 110.105 6.13623 110.794 6.13623 111.643C6.13623 112.492 6.82488 113.181 7.67432 113.181Z" fill="#979797"/>
<path d="M24.1331 145.809H7.67432C6.82488 145.809 6.13623 146.498 6.13623 147.347C6.13623 148.197 6.82488 148.885 7.67432 148.885H24.1331C24.9825 148.885 25.6712 148.197 25.6712 147.347C25.6712 146.498 24.9825 145.809 24.1331 145.809Z" fill="#979797"/>
<path d="M81.0698 113.181H97.5286C98.378 113.181 99.0667 112.492 99.0667 111.643C99.0667 110.794 98.378 110.105 97.5286 110.105H81.0698C80.2204 110.105 79.5317 110.794 79.5317 111.643C79.5317 112.492 80.2204 113.181 81.0698 113.181Z" fill="#979797"/>
<path d="M97.5286 145.809H81.0698C80.2204 145.809 79.5317 146.498 79.5317 147.347C79.5317 148.197 80.2204 148.885 81.0698 148.885H97.5286C98.378 148.885 99.0667 148.197 99.0667 147.347C99.0667 146.498 98.378 145.809 97.5286 145.809Z" fill="#979797"/>
<path d="M82.4637 81.4153V177.585C82.4637 180.019 80.4847 182 78.0504 182H27.0085C24.5742 182 22.5952 180.019 22.5952 177.585V81.4153C22.5952 78.9811 24.5742 77 27.0085 77H78.0504C80.4847 77 82.4637 78.9811 82.4637 81.4153Z" fill="#56E0E0"/>
<path d="M82.4637 81.4153V177.585C82.4637 180.019 80.4847 182 78.0504 182H27.0085C24.5742 182 22.5952 180.019 22.5952 177.585V176.666H72.5379C74.9024 176.666 76.8199 174.748 76.8199 172.384V80.4966C76.8199 79.1021 76.2006 77.847 75.2203 77H78.0504C80.4847 77 82.4637 78.9811 82.4637 81.4153Z" fill="#12B2B3"/>
<path d="M68.4201 77V82.6355C68.4201 83.4866 67.7311 84.1736 66.882 84.1736H38.1772C37.3282 84.1736 36.6392 83.4866 36.6392 82.6355V77H68.4201Z" fill="#979797"/>
<path d="M61.2563 170.104H43.8027C42.9533 170.104 42.2646 170.792 42.2646 171.642C42.2646 172.491 42.9533 173.18 43.8027 173.18H61.2563C62.106 173.18 62.7944 172.491 62.7944 171.642C62.7944 170.792 62.106 170.104 61.2563 170.104Z" fill="#979797"/>
<path d="M0.547955 91.1602L5.0687 94.963C5.34596 95.1961 5.69665 95.3241 6.05881 95.3241H29.6539C30.5033 95.3241 31.192 94.6355 31.192 93.786C31.192 92.9366 30.5033 92.2479 29.6539 92.2479H6.6197L2.52819 88.8063C1.87789 88.2594 0.907867 88.3433 0.361129 88.9931C-0.185814 89.6432 -0.101938 90.6135 0.547955 91.1602Z" fill="#979797"/>
<path d="M1.64258 131.033H29.6538C30.5032 131.033 31.1919 130.345 31.1919 129.495C31.1919 128.646 30.5032 127.957 29.6538 127.957H1.64258C0.793144 127.957 0.104492 128.646 0.104492 129.495C0.104492 130.345 0.793144 131.033 1.64258 131.033Z" fill="#979797"/>
<path d="M4.60626 116.261C7.14615 116.261 9.21231 114.189 9.21231 111.643C9.21231 109.097 7.14595 107.026 4.60626 107.026C2.06657 107.026 0 109.097 0 111.643C0 114.189 2.06637 116.261 4.60626 116.261Z" fill="#F2B829"/>
<path d="M4.60605 142.73C2.06616 142.73 0 144.801 0 147.347C0 149.893 2.06637 151.965 4.60605 151.965C7.14574 151.965 9.21211 149.893 9.21211 147.347C9.21211 144.801 7.14574 142.73 4.60605 142.73Z" fill="#F2B829"/>
<path d="M32.7223 98.4036C35.2622 98.4036 37.3285 96.3321 37.3285 93.786C37.3285 91.24 35.2622 89.1687 32.7223 89.1687C30.1824 89.1687 28.1162 91.24 28.1162 93.786C28.1162 96.3321 30.1824 98.4036 32.7223 98.4036Z" fill="#ED7E31"/>
<path d="M32.7223 134.113C35.2622 134.113 37.3285 132.041 37.3285 129.495C37.3285 126.949 35.2622 124.878 32.7223 124.878C30.1824 124.878 28.1162 126.949 28.1162 129.495C28.1162 132.041 30.1824 134.113 32.7223 134.113Z" fill="#ED7E31"/>
<path d="M75.2417 163.671H98.8368C99.1991 163.671 99.5496 163.799 99.8269 164.032L104.348 167.835C104.998 168.382 105.082 169.352 104.535 170.002C104.231 170.364 103.796 170.55 103.357 170.55C103.008 170.55 102.656 170.431 102.368 170.189L98.2761 166.747H75.2417C74.3923 166.747 73.7036 166.058 73.7036 165.209C73.7036 164.359 74.3923 163.671 75.2417 163.671Z" fill="#979797"/>
<path d="M103.357 131.028H75.3462C74.4968 131.028 73.8081 130.34 73.8081 129.49C73.8081 128.641 74.4968 127.952 75.3462 127.952H103.357C104.207 127.952 104.895 128.641 104.895 129.49C104.895 130.34 104.207 131.028 103.357 131.028Z" fill="#979797"/>
<path d="M100.394 116.256C97.8543 116.256 95.7881 114.184 95.7881 111.638C95.7881 109.092 97.8545 107.021 100.394 107.021C102.934 107.021 105 109.092 105 111.638C105 114.184 102.934 116.256 100.394 116.256Z" fill="#F2B829"/>
<path d="M100.394 142.725C102.934 142.725 105 144.797 105 147.343C105 149.889 102.934 151.96 100.394 151.96C97.8545 151.96 95.7881 149.889 95.7881 147.343C95.7881 144.797 97.8543 142.725 100.394 142.725Z" fill="#F2B829"/>
<path d="M72.1734 160.592C74.7133 160.592 76.7795 162.663 76.7795 165.209C76.7795 167.755 74.7131 169.827 72.1734 169.827C69.6337 169.827 67.5674 167.755 67.5674 165.209C67.5674 162.663 69.6335 160.592 72.1734 160.592Z" fill="#ED7E31"/>
<path d="M72.2781 134.108C69.7382 134.108 67.6719 132.036 67.6719 129.49C67.6719 126.944 69.7382 124.873 72.2781 124.873C74.818 124.873 76.8842 126.944 76.8842 129.49C76.8842 132.036 74.818 134.108 72.2781 134.108Z" fill="#ED7E31"/>
<path d="M52.5297 117.428H43.5044C42.655 117.428 41.9663 118.116 41.9663 118.966V140.025C41.9663 140.874 42.655 141.563 43.5044 141.563C44.3538 141.563 45.0425 140.874 45.0425 140.025V131.033H50.9916V140.025C50.9916 140.874 51.6802 141.563 52.5297 141.563C53.3791 141.563 54.0678 140.874 54.0678 140.025V118.966C54.068 118.116 53.3791 117.428 52.5297 117.428ZM45.0425 127.957V120.504H50.9916V127.957H45.0425Z" fill="white"/>
<path d="M61.5547 117.428C60.705 117.428 60.0166 118.116 60.0166 118.966V140.025C60.0166 140.874 60.705 141.563 61.5547 141.563C62.4043 141.563 63.0928 140.874 63.0928 140.025V118.966C63.0928 118.116 62.4043 117.428 61.5547 117.428Z" fill="white"/>
<defs>
<filter id="filter0_d" x="38" y="0" width="159" height="91" filterUnits="userSpaceOnUse" color-interpolation-filters="sRGB">
<feFlood flood-opacity="0" result="BackgroundImageFix"/>
<feColorMatrix in="SourceAlpha" type="matrix" values="0 0 0 0 0 0 0 0 0 0 0 0 0 0 0 0 0 0 127 0"/>
<feOffset dy="4"/>
<feGaussianBlur stdDeviation="2"/>
<feColorMatrix type="matrix" values="0 0 0 0 0 0 0 0 0 0 0 0 0 0 0 0 0 0 0.25 0"/>
<feBlend mode="normal" in2="BackgroundImageFix" result="effect1_dropShadow"/>
<feBlend mode="normal" in="SourceGraphic" in2="effect1_dropShadow" result="shape"/>
</filter>
</defs>
</svg>
