<svg width="248" height="177" viewBox="0 0 248 177" fill="none" xmlns="http://www.w3.org/2000/svg">
<g filter="url(#filter0_d)">
<path fill-rule="evenodd" clip-rule="evenodd" d="M74.1928 140.295C112.959 140.295 144.386 108.889 144.386 70.1474C144.386 31.4061 112.959 0 74.1928 0C35.4264 0 4 31.4061 4 70.1474C4 108.889 35.4264 140.295 74.1928 140.295Z" fill="#FCFBFF"/>
</g>
<mask id="mask0" mask-type="alpha" maskUnits="userSpaceOnUse" x="3" y="-1" width="143" height="143">
<path fill-rule="evenodd" clip-rule="evenodd" d="M74.1928 140.295C112.959 140.295 144.386 108.889 144.386 70.1474C144.386 31.4061 112.959 0 74.1928 0C35.4264 0 4 31.4061 4 70.1474C4 108.889 35.4264 140.295 74.1928 140.295Z" fill="white" stroke="white" stroke-width="2"/>
</mask>
<g mask="url(#mask0)">
<g clip-path="url(#clip0)">
<path fill-rule="evenodd" clip-rule="evenodd" d="M61.3755 45.545H126.482V139.888H61.3755V45.545Z" fill="#979797"/>
<path fill-rule="evenodd" clip-rule="evenodd" d="M61.3755 83.7702H28.4154V139.888H61.3755V83.7702Z" fill="#D8D8D8"/>
<path fill-rule="evenodd" clip-rule="evenodd" d="M150.896 45.545H126.482V139.888H150.896V45.545Z" fill="#D8D8D8"/>
<path fill-rule="evenodd" clip-rule="evenodd" d="M159.441 83.7702H126.481V139.888H159.441V83.7702Z" fill="#979797"/>
<rect x="132.992" y="89.4634" width="4.06916" height="8.13302" fill="#D8D8D8"/>
<rect x="141.13" y="89.4634" width="4.06912" height="8.13302" fill="#D8D8D8"/>
<rect x="132.992" y="101.663" width="4.06916" height="8.13303" fill="#D8D8D8"/>
<rect x="141.13" y="101.663" width="4.06912" height="8.13303" fill="#D8D8D8"/>
<rect x="132.992" y="113.862" width="4.06916" height="8.13303" fill="#D8D8D8"/>
<rect x="141.13" y="113.862" width="4.06912" height="8.13303" fill="#D8D8D8"/>
<rect x="132.992" y="126.062" width="4.06916" height="8.13304" fill="#D8D8D8"/>
<rect x="141.13" y="126.062" width="4.06912" height="8.13304" fill="#D8D8D8"/>
<path d="M126.481 45.545V139.888" stroke="#EEEBFF"/>
<path d="M138.689 45.545V83.7702" stroke="#EEEBFF"/>
<path d="M110.205 45.545V139.888" stroke="#EEEBFF"/>
<path d="M77.6517 45.545V139.888" stroke="#EEEBFF"/>
<path d="M61.3755 132.568H126.693" stroke="white"/>
<path fill-rule="evenodd" clip-rule="evenodd" d="M85.3828 122.402H102.473V139.888H85.3828V122.402Z" fill="#D8D8D8"/>
<path fill-rule="evenodd" clip-rule="evenodd" d="M61.3755 45.545H126.482V59.3711H61.3755V45.545Z" fill="#F2F2F2"/>
<path d="M93.9286 45.545V139.888" stroke="#EEEBFF"/>
<path d="M61.3755 67.5042H150.897" stroke="white"/>
<path d="M61.3755 83.7702H150.897" stroke="white"/>
<path d="M61.3755 100.036H126.693" stroke="white"/>
<path fill-rule="evenodd" clip-rule="evenodd" d="M76.8377 56.1179C79.085 56.1179 80.9068 54.2973 80.9068 52.0514C80.9068 49.8055 79.085 47.9849 76.8377 47.9849C74.5904 47.9849 72.7686 49.8055 72.7686 52.0514C72.7686 54.2973 74.5904 56.1179 76.8377 56.1179Z" fill="#D8D8D8"/>
<path d="M61.3755 116.302H126.693" stroke="white"/>
<rect x="34.9258" y="89.4634" width="4.06915" height="8.13302" fill="#979797"/>
<rect x="43.064" y="89.4634" width="4.06915" height="8.13302" fill="#979797"/>
<rect x="51.2021" y="89.4634" width="4.06915" height="8.13302" fill="#979797"/>
<rect x="34.9258" y="101.663" width="4.06915" height="8.13303" fill="#979797"/>
<rect x="43.064" y="101.663" width="4.06915" height="8.13303" fill="#979797"/>
<rect x="51.2021" y="101.663" width="4.06915" height="8.13303" fill="#979797"/>
<rect x="34.9258" y="113.862" width="4.06915" height="8.13303" fill="#979797"/>
<rect x="43.064" y="113.862" width="4.06915" height="8.13303" fill="#979797"/>
<rect x="51.2021" y="113.862" width="4.06915" height="8.13303" fill="#979797"/>
<rect x="34.9258" y="126.062" width="4.06915" height="8.13304" fill="#979797"/>
<rect x="43.064" y="126.062" width="4.06915" height="8.13304" fill="#979797"/>
<rect x="51.2021" y="126.062" width="4.06915" height="8.13304" fill="#979797"/>
</g>
<path fill-rule="evenodd" clip-rule="evenodd" d="M33.0404 67.0755C33.0404 67.0755 29.7026 57.865 33.0404 50.8391C36.3783 43.8132 44.5389 43.5407 49.8494 45.3524C55.1598 47.1641 58.352 51.7303 56.2691 64.8552C56.0153 66.454 54.5885 72.0038 54.5885 72.0038L57.699 83.7852C57.699 83.7852 63.9244 98.6321 43.4147 98.6321C22.905 98.6321 30.0609 83.7852 30.0609 83.7852L34.3746 72.0038L33.0404 67.0755Z" fill="black"/>
<path fill-rule="evenodd" clip-rule="evenodd" d="M37.0834 77.5804H52.0037V87.3225L55.6007 88.4977C55.6007 88.4977 59.149 99.7558 44.3441 100.921C29.5392 102.086 33.8192 88.7088 33.8192 88.7088L37.0834 87.3225V77.5804Z" fill="#FDBBA4"/>
<path fill-rule="evenodd" clip-rule="evenodd" d="M37.083 77.5804V87.3225C37.083 87.3225 42.7642 85.729 46.1376 83.7174C49.5109 81.7059 52.0686 77.939 52.0686 77.939L37.083 77.5804Z" fill="#E9A38B"/>
<path fill-rule="evenodd" clip-rule="evenodd" d="M32.4185 64.8552C32.4185 64.8552 34.9498 80.7228 42.5182 82.0952C50.0867 83.4675 54.1711 77.2983 56.2691 64.8552C56.2691 64.8552 56.1972 62.6826 53.9784 60.9973C51.7597 59.3121 43.4796 59.3395 38.9554 50.321C38.9554 50.321 37.0646 58.1436 36.3091 59.55C35.2009 61.613 32.4185 64.8552 32.4185 64.8552Z" fill="#FDBBA4"/>
<path d="M53.3994 66.1196L56.2691 64.8552" stroke="#062721" stroke-width="1.2"/>
<path d="M34.2959 66.1196L31.4262 64.8552" stroke="#062721" stroke-width="1.2"/>
<path fill-rule="evenodd" clip-rule="evenodd" d="M41.8916 74.7389H47.7512C47.7512 74.7389 47.1808 77.0925 44.8214 77.0925C42.462 77.0925 41.8916 74.7389 41.8916 74.7389Z" fill="white"/>
<path d="M43.9462 65.9361C43.9462 65.9361 43.4044 70.5981 43.6753 71.4163C43.9462 72.2346 45.7975 71.9336 45.7975 71.9336" stroke="#062721" stroke-width="1.2"/>
<path fill-rule="evenodd" clip-rule="evenodd" d="M49.0049 67.1565C49.5443 67.1565 49.9815 66.7195 49.9815 66.1805C49.9815 65.6415 49.5443 65.2045 49.0049 65.2045C48.4656 65.2045 48.0283 65.6415 48.0283 66.1805C48.0283 66.7195 48.4656 67.1565 49.0049 67.1565Z" fill="#062721"/>
<rect x="34.3564" y="64.2286" width="8.30106" height="3.90385" rx="1.95193" stroke="#062721" stroke-width="1.2"/>
<rect x="45.0986" y="64.2286" width="8.30106" height="3.90385" rx="1.95193" stroke="#062721" stroke-width="1.2"/>
<path d="M42.6572 66.1805C42.6572 66.1805 43.3778 65.9365 45.0987 66.1805" stroke="#062721" stroke-width="1.2"/>
<path d="M57.2962 62.1594C57.3351 61.6058 57.3586 61.0348 57.3662 60.4464C57.511 49.1852 51.4031 44.2213 44.1218 44.2213C36.8404 44.2213 30.8853 49.7881 30.8853 60.3247C30.8853 60.9541 30.9073 61.5657 30.9503 62.1594" stroke="#1C154A" stroke-width="3.6"/>
<path fill-rule="evenodd" clip-rule="evenodd" d="M28.0952 64.9439C27.9922 64.4144 28.338 63.9017 28.8676 63.7988C29.3969 63.696 29.9094 64.0417 30.0124 64.571L30.8507 68.881C30.9537 69.4105 30.6079 69.9233 30.0783 70.0261C29.549 70.129 29.0365 69.7833 28.9335 69.2539L28.0952 64.9439Z" fill="#1C154A"/>
<path fill-rule="evenodd" clip-rule="evenodd" d="M60.6367 64.9439C60.7397 64.4144 60.3939 63.9017 59.8644 63.7988C59.335 63.696 58.8225 64.0417 58.7195 64.571L57.8812 68.881C57.7782 69.4105 58.1241 69.9233 58.6536 70.0261C59.183 70.129 59.6955 69.7833 59.7984 69.2539L60.6367 64.9439Z" fill="#1C154A"/>
<path d="M55.9572 70.2123C55.9572 70.2123 54.9821 75.724 49.7676 75.724" stroke="#1C154A" stroke-width="1.2"/>
<path fill-rule="evenodd" clip-rule="evenodd" d="M28.8523 63.3987C28.672 62.4721 29.2772 61.5748 30.2039 61.3948C31.1303 61.2148 32.0272 61.8198 32.2074 62.7461L33.5114 69.4504C33.6916 70.377 33.0864 71.2743 32.1597 71.4543C31.2333 71.6342 30.3364 71.0293 30.1563 70.1029L28.8523 63.3987Z" fill="#1C154A"/>
<path fill-rule="evenodd" clip-rule="evenodd" d="M46.5635 75.6962C46.5635 75.2919 46.8912 74.9642 47.2954 74.9642H50.2262C50.6304 74.9642 50.9582 75.2919 50.9582 75.6962C50.9582 76.1005 50.6304 76.4282 50.2262 76.4282H47.2954C46.8912 76.4282 46.5635 76.1005 46.5635 75.6962Z" fill="#1C154A"/>
<path fill-rule="evenodd" clip-rule="evenodd" d="M59.8797 63.3987C60.0599 62.4721 59.4547 61.5748 58.528 61.3948C57.6016 61.2148 56.7047 61.8198 56.5246 62.7461L55.2205 69.4504C55.0403 70.377 55.6455 71.2743 56.5722 71.4543C57.4986 71.6342 58.3955 71.0293 58.5757 70.1029L59.8797 63.3987Z" fill="#1C154A"/>
<path fill-rule="evenodd" clip-rule="evenodd" d="M15.4526 98.7534L28.5603 89.5961C28.5603 89.5961 37.8456 100.515 45.7972 100.303C53.7488 100.091 61.6151 89.5961 61.6151 89.5961L72.4658 98.7534L60.2057 136.379L33.8377 137.487L15.4526 98.7534Z" fill="white"/>
<path fill-rule="evenodd" clip-rule="evenodd" d="M34.2958 88.4978L45.7974 133.974L55.6004 88.4978C55.6004 88.4978 67.7902 91.7407 72.466 95.6201C77.1418 99.4995 81.2324 139.955 81.2324 139.955H8.47607C8.47607 139.955 14.2155 101.644 16.3334 95.6201C18.4513 89.5962 34.2958 88.4978 34.2958 88.4978Z" fill="#F2B829"/>
<path d="M31.426 90.6353L28.5259 108.721H35.6369L32.4184 112.374L45.7973 137.487L57.6947 112.374L54.2871 108.721H61.2121L57.3687 90.6353" stroke="#062721" stroke-width="1.2"/>
<path d="M24.6362 139.955V113.542" stroke="#062721" stroke-width="1.2"/>
<path d="M66.1411 139.955V113.542" stroke="#062721" stroke-width="1.2"/>
<path fill-rule="evenodd" clip-rule="evenodd" d="M38.7505 67.1565C39.2899 67.1565 39.7271 66.7195 39.7271 66.1805C39.7271 65.6415 39.2899 65.2045 38.7505 65.2045C38.2112 65.2045 37.7739 65.6415 37.7739 66.1805C37.7739 66.7195 38.2112 67.1565 38.7505 67.1565Z" fill="#062721"/>
<path d="M-10.2422 114.983C-10.2422 111.669 -7.5559 108.983 -4.24219 108.983H35.436C38.7497 108.983 41.436 111.669 41.436 114.983V139.888H-10.2422V114.983Z" fill="#979797"/>
<path fill-rule="evenodd" clip-rule="evenodd" d="M10.1035 129.722H21.0902V139.888H10.1035V129.722Z" fill="#1C154A"/>
</g>
<path d="M209.937 58.0676V58.0676C219.19 59.9577 225.48 68.5842 224.451 77.9716L224.184 80.4068C221.941 100.855 194.661 106.183 184.889 88.0821L177.088 73.6314C173.488 66.9627 177.253 58.7002 184.648 57.042V57.042" stroke="#12B2B3" stroke-width="4.4"/>
<path fill-rule="evenodd" clip-rule="evenodd" d="M184.239 57.0909C184.115 56.0822 184.776 55.1436 185.767 54.9203L190.425 53.8712C191.694 53.5853 192.933 54.4574 193.092 55.7487L193.154 56.2517C193.313 57.544 192.321 58.6909 191.02 58.7199L186.246 58.8262C185.23 58.8488 184.363 58.0988 184.239 57.0909Z" fill="#1C154A"/>
<path fill-rule="evenodd" clip-rule="evenodd" d="M210.371 58.1006C210.459 57.089 209.767 56.1749 208.769 55.986L204.076 55.0978C202.797 54.8557 201.589 55.7712 201.476 57.0681L201.432 57.5726C201.318 58.8689 202.349 59.9796 203.65 59.9638L208.426 59.9056C209.442 59.8933 210.283 59.1128 210.371 58.1006Z" fill="#1C154A"/>
<path d="M148.753 99.4748C148.753 99.4748 155.918 92.8582 161.256 89.5245" stroke="#1C154A" stroke-width="4.4"/>
<path fill-rule="evenodd" clip-rule="evenodd" d="M161.646 93.936C165.313 95.4177 169.486 93.6478 170.967 89.9829C172.448 86.318 170.675 82.1458 167.008 80.6641C163.341 79.1825 159.167 80.9523 157.687 84.6172C156.206 88.2822 157.978 92.4543 161.646 93.936Z" fill="#12B2B3"/>
<path fill-rule="evenodd" clip-rule="evenodd" d="M162.986 90.6181C164.82 91.3589 166.906 90.474 167.647 88.6415C168.387 86.8091 167.501 84.723 165.667 83.9822C163.834 83.2413 161.747 84.1262 161.007 85.9587C160.266 87.7912 161.153 89.8772 162.986 90.6181Z" fill="#1C154A" stroke="white" stroke-width="2.86"/>
<path d="M210.593 116.025C210.593 116.025 222.73 161.851 193.775 160.635C164.819 159.419 184.381 141.323 151.998 133.413C119.615 125.503 150.395 97.9314 150.395 97.9314" stroke="#56E0E0" stroke-width="6.6" stroke-linecap="round"/>
<path d="M189.692 96.7457L196.843 109.15C199.942 114.525 206.332 117.062 212.275 115.277V115.277C217.474 113.714 221.212 109.164 221.736 103.76L222.875 91.9901" stroke="#56E0E0" stroke-width="6.6" stroke-linecap="round"/>
<path fill-rule="evenodd" clip-rule="evenodd" d="M178.802 116.553C177.236 109.742 171.173 104.916 164.184 104.916H104.632C94.9905 104.916 87.8527 113.882 90.0142 123.279L99.3898 164.036C100.957 170.847 107.019 175.673 114.008 175.673H173.56C183.202 175.673 190.339 166.707 188.178 157.311L178.802 116.553Z" fill="#1C154A"/>
<path fill-rule="evenodd" clip-rule="evenodd" d="M85.4904 118.212C86.3567 110.636 92.7684 104.916 100.393 104.916H160.533C169.492 104.916 176.454 112.719 175.436 121.62L170.728 162.784C169.862 170.36 163.45 176.08 155.825 176.08H95.6857C86.7263 176.08 79.7649 168.277 80.7829 159.376L85.4904 118.212Z" fill="#56E0E0"/>
<mask id="mask1" mask-type="alpha" maskUnits="userSpaceOnUse" x="80" y="104" width="96" height="73">
<path fill-rule="evenodd" clip-rule="evenodd" d="M85.4904 118.212C86.3567 110.636 92.7684 104.916 100.393 104.916H160.533C169.492 104.916 176.454 112.719 175.436 121.62L170.728 162.784C169.862 170.36 163.45 176.08 155.825 176.08H95.6857C86.7263 176.08 79.7649 168.277 80.7829 159.376L85.4904 118.212Z" fill="white"/>
</mask>
<g mask="url(#mask1)">
<rect x="82.9419" y="101.256" width="98.4733" height="15.8594" fill="#12B2B3"/>
</g>
<path d="M90.8691 130.805H167.138" stroke="white"/>
<path d="M88.4272 143.005H164.697" stroke="white"/>
<path d="M87.2065 155.205H163.476" stroke="white"/>
<path d="M103.093 122.933L99.4053 167.786" stroke="white"/>
<path d="M119.37 122.933L115.682 167.786" stroke="white"/>
<path d="M135.646 122.933L131.958 167.786" stroke="white"/>
<path d="M151.923 122.933L148.235 167.786" stroke="white"/>
<path fill-rule="evenodd" clip-rule="evenodd" d="M120.056 130.805L119.113 143.005H135.027L136.295 130.805H120.056Z" fill="white"/>
<defs>
<filter id="filter0_d" x="0" y="0" width="148.386" height="148.295" filterUnits="userSpaceOnUse" color-interpolation-filters="sRGB">
<feFlood flood-opacity="0" result="BackgroundImageFix"/>
<feColorMatrix in="SourceAlpha" type="matrix" values="0 0 0 0 0 0 0 0 0 0 0 0 0 0 0 0 0 0 127 0"/>
<feOffset dy="4"/>
<feGaussianBlur stdDeviation="2"/>
<feColorMatrix type="matrix" values="0 0 0 0 0 0 0 0 0 0 0 0 0 0 0 0 0 0 0.25 0"/>
<feBlend mode="normal" in2="BackgroundImageFix" result="effect1_dropShadow"/>
<feBlend mode="normal" in="SourceGraphic" in2="effect1_dropShadow" result="shape"/>
</filter>
<clipPath id="clip0">
<rect width="156.865" height="94.678" fill="white" transform="translate(28.415 45.545)"/>
</clipPath>
</defs>
</svg>
